G04*
G04 #@! TF.GenerationSoftware,Altium Limited,Altium Designer,20.1.14 (287)*
G04*
G04 Layer_Color=8421504*
%FSLAX24Y24*%
%MOIN*%
G70*
G04*
G04 #@! TF.SameCoordinates,C6E9D1D4-3227-45F5-A25F-63411827B746*
G04*
G04*
G04 #@! TF.FilePolarity,Positive*
G04*
G01*
G75*
%ADD17R,0.0433X0.0531*%
%ADD18R,0.0728X0.0531*%
%ADD19R,0.0689X0.0551*%
%ADD20R,0.0709X0.0531*%
%ADD21R,0.0315X0.0118*%
%ADD22R,0.0118X0.0315*%
%ADD23R,0.0413X0.0945*%
%ADD24R,0.4193X0.3504*%
%ADD25R,0.0709X0.0472*%
%ADD26O,0.0138X0.0630*%
%ADD27O,0.0630X0.0138*%
%ADD28R,0.0453X0.0709*%
%ADD29R,0.0709X0.0453*%
%ADD30R,0.0098X0.0138*%
%ADD31R,0.0138X0.0098*%
%ADD32R,0.0374X0.0669*%
%ADD33R,0.0748X0.0374*%
%ADD34R,0.1240X0.1882*%
%ADD35R,0.0531X0.0709*%
%ADD36R,0.0531X0.0433*%
D17*
X1400Y7550D02*
D03*
Y6428D02*
D03*
D18*
X20200Y27900D02*
D03*
Y29100D02*
D03*
X20400Y30299D02*
D03*
Y31500D02*
D03*
X19100Y33000D02*
D03*
Y31799D02*
D03*
D19*
X15400Y24719D02*
D03*
Y25900D02*
D03*
X20200Y21191D02*
D03*
Y20009D02*
D03*
D20*
X15500Y30749D02*
D03*
Y31851D02*
D03*
X18900Y28600D02*
D03*
Y27498D02*
D03*
X17950Y12002D02*
D03*
Y10900D02*
D03*
X11800Y12052D02*
D03*
Y10950D02*
D03*
X12900Y10951D02*
D03*
Y12054D02*
D03*
X10700D02*
D03*
Y10951D02*
D03*
D21*
X17308Y30794D02*
D03*
Y30597D02*
D03*
Y30400D02*
D03*
Y30203D02*
D03*
Y30006D02*
D03*
X18292D02*
D03*
Y30203D02*
D03*
Y30400D02*
D03*
Y30597D02*
D03*
Y30794D02*
D03*
D22*
X17603Y29908D02*
D03*
X17800D02*
D03*
X17997D02*
D03*
Y30892D02*
D03*
X17800D02*
D03*
X17603D02*
D03*
D23*
X4900Y10525D02*
D03*
X6900D02*
D03*
D24*
X5900Y14600D02*
D03*
D25*
X13387Y18572D02*
D03*
X11813D02*
D03*
Y17628D02*
D03*
X13387D02*
D03*
D26*
X5924Y24583D02*
D03*
X6120D02*
D03*
X6317D02*
D03*
X6514D02*
D03*
X6711D02*
D03*
X6908D02*
D03*
X7105D02*
D03*
X7302D02*
D03*
X7498D02*
D03*
X7695D02*
D03*
X7892D02*
D03*
X8089D02*
D03*
X8286D02*
D03*
X8483D02*
D03*
X8680D02*
D03*
X8876D02*
D03*
Y20017D02*
D03*
X8680D02*
D03*
X8483D02*
D03*
X8286D02*
D03*
X8089D02*
D03*
X7892D02*
D03*
X7695D02*
D03*
X7498D02*
D03*
X7302D02*
D03*
X7105D02*
D03*
X6908D02*
D03*
X6711D02*
D03*
X6514D02*
D03*
X6317D02*
D03*
X6120D02*
D03*
X5924D02*
D03*
D27*
X9683Y23776D02*
D03*
Y23580D02*
D03*
Y23383D02*
D03*
Y23186D02*
D03*
Y22989D02*
D03*
Y22792D02*
D03*
Y22595D02*
D03*
Y22398D02*
D03*
Y22202D02*
D03*
Y22005D02*
D03*
Y21808D02*
D03*
Y21611D02*
D03*
Y21414D02*
D03*
Y21217D02*
D03*
Y21020D02*
D03*
Y20824D02*
D03*
X5117D02*
D03*
Y21020D02*
D03*
Y21217D02*
D03*
Y21414D02*
D03*
Y21611D02*
D03*
Y21808D02*
D03*
Y22005D02*
D03*
Y22202D02*
D03*
Y22398D02*
D03*
Y22595D02*
D03*
Y22792D02*
D03*
Y22989D02*
D03*
Y23186D02*
D03*
Y23383D02*
D03*
Y23580D02*
D03*
Y23776D02*
D03*
D28*
X9419Y18400D02*
D03*
X10600D02*
D03*
D29*
X10900Y20691D02*
D03*
Y19509D02*
D03*
D30*
X17852Y22682D02*
D03*
X18049D02*
D03*
X18246D02*
D03*
Y21718D02*
D03*
X18049D02*
D03*
X17852D02*
D03*
D31*
X18531Y22594D02*
D03*
Y22397D02*
D03*
Y22200D02*
D03*
Y22003D02*
D03*
Y21806D02*
D03*
X17567D02*
D03*
Y22003D02*
D03*
Y22200D02*
D03*
Y22397D02*
D03*
Y22594D02*
D03*
D32*
X19600Y23600D02*
D03*
X18498D02*
D03*
D33*
X9550Y12200D02*
D03*
Y10802D02*
D03*
X15400Y12100D02*
D03*
Y10702D02*
D03*
X16800Y12150D02*
D03*
Y10752D02*
D03*
X14050Y12099D02*
D03*
Y10701D02*
D03*
D34*
X3340Y5150D02*
D03*
X15560D02*
D03*
D35*
X949Y10300D02*
D03*
X2051D02*
D03*
D36*
X1278Y16900D02*
D03*
X2400D02*
D03*
M02*
