G04*
G04 #@! TF.GenerationSoftware,Altium Limited,Altium Designer,20.1.14 (287)*
G04*
G04 Layer_Physical_Order=2*
G04 Layer_Color=16711680*
%FSLAX24Y24*%
%MOIN*%
G70*
G04*
G04 #@! TF.SameCoordinates,C6E9D1D4-3227-45F5-A25F-63411827B746*
G04*
G04*
G04 #@! TF.FilePolarity,Positive*
G04*
G01*
G75*
%ADD14C,0.0080*%
%ADD15C,0.0100*%
%ADD65C,0.0150*%
%ADD67C,0.0400*%
%ADD68R,0.0400X0.0400*%
%ADD69C,0.0531*%
%ADD70R,0.0531X0.0531*%
%ADD71R,0.0591X0.0591*%
%ADD72C,0.0591*%
%ADD73C,0.0500*%
%ADD74C,0.1575*%
%ADD75C,0.0300*%
G36*
X22517Y120D02*
X120D01*
Y35313D01*
X22517D01*
Y120D01*
D02*
G37*
%LPC*%
G36*
X21260Y35124D02*
X21090Y35107D01*
X20926Y35057D01*
X20776Y34977D01*
X20644Y34868D01*
X20535Y34736D01*
X20455Y34586D01*
X20405Y34422D01*
X20388Y34252D01*
X20405Y34082D01*
X20455Y33918D01*
X20535Y33768D01*
X20644Y33636D01*
X20776Y33527D01*
X20926Y33447D01*
X21090Y33397D01*
X21260Y33380D01*
X21430Y33397D01*
X21593Y33447D01*
X21744Y33527D01*
X21876Y33636D01*
X21985Y33768D01*
X22065Y33918D01*
X22115Y34082D01*
X22131Y34252D01*
X22115Y34422D01*
X22065Y34586D01*
X21985Y34736D01*
X21876Y34868D01*
X21744Y34977D01*
X21593Y35057D01*
X21430Y35107D01*
X21260Y35124D01*
D02*
G37*
G36*
X1181D02*
X1011Y35107D01*
X848Y35057D01*
X697Y34977D01*
X565Y34868D01*
X456Y34736D01*
X376Y34586D01*
X326Y34422D01*
X310Y34252D01*
X326Y34082D01*
X376Y33918D01*
X456Y33768D01*
X565Y33636D01*
X697Y33527D01*
X848Y33447D01*
X1011Y33397D01*
X1181Y33380D01*
X1351Y33397D01*
X1515Y33447D01*
X1665Y33527D01*
X1797Y33636D01*
X1906Y33768D01*
X1986Y33918D01*
X2036Y34082D01*
X2053Y34252D01*
X2036Y34422D01*
X1986Y34586D01*
X1906Y34736D01*
X1797Y34868D01*
X1665Y34977D01*
X1515Y35057D01*
X1351Y35107D01*
X1181Y35124D01*
D02*
G37*
G36*
X12475Y33675D02*
X11725D01*
Y32925D01*
X12475D01*
Y33675D01*
D02*
G37*
G36*
X3475D02*
X2725D01*
Y32925D01*
X3475D01*
Y33675D01*
D02*
G37*
G36*
X17300Y32295D02*
Y32100D01*
X17495D01*
X17486Y32148D01*
X17430Y32230D01*
X17348Y32285D01*
X17300Y32295D01*
D02*
G37*
G36*
X17200D02*
X17152Y32285D01*
X17070Y32230D01*
X17014Y32148D01*
X17005Y32100D01*
X17200D01*
Y32295D01*
D02*
G37*
G36*
X12100Y32679D02*
X12002Y32666D01*
X11911Y32628D01*
X11832Y32568D01*
X11772Y32489D01*
X11734Y32398D01*
X11721Y32300D01*
X11734Y32202D01*
X11772Y32111D01*
X11832Y32032D01*
X11911Y31972D01*
X12002Y31934D01*
X12100Y31921D01*
X12198Y31934D01*
X12289Y31972D01*
X12368Y32032D01*
X12428Y32111D01*
X12466Y32202D01*
X12479Y32300D01*
X12466Y32398D01*
X12428Y32489D01*
X12368Y32568D01*
X12289Y32628D01*
X12198Y32666D01*
X12100Y32679D01*
D02*
G37*
G36*
X3100D02*
X3002Y32666D01*
X2911Y32628D01*
X2832Y32568D01*
X2772Y32489D01*
X2734Y32398D01*
X2721Y32300D01*
X2734Y32202D01*
X2772Y32111D01*
X2832Y32032D01*
X2911Y31972D01*
X3002Y31934D01*
X3100Y31921D01*
X3198Y31934D01*
X3289Y31972D01*
X3368Y32032D01*
X3428Y32111D01*
X3466Y32202D01*
X3479Y32300D01*
X3466Y32398D01*
X3428Y32489D01*
X3368Y32568D01*
X3289Y32628D01*
X3198Y32666D01*
X3100Y32679D01*
D02*
G37*
G36*
X17495Y32000D02*
X17300D01*
Y31805D01*
X17348Y31814D01*
X17430Y31870D01*
X17486Y31952D01*
X17495Y32000D01*
D02*
G37*
G36*
X17200D02*
X17005D01*
X17014Y31952D01*
X17070Y31870D01*
X17152Y31814D01*
X17200Y31805D01*
Y32000D01*
D02*
G37*
G36*
X12100Y31679D02*
X12002Y31666D01*
X11911Y31628D01*
X11832Y31568D01*
X11772Y31489D01*
X11734Y31398D01*
X11721Y31300D01*
X11734Y31202D01*
X11772Y31111D01*
X11832Y31032D01*
X11911Y30972D01*
X12002Y30934D01*
X12100Y30921D01*
X12198Y30934D01*
X12289Y30972D01*
X12368Y31032D01*
X12428Y31111D01*
X12466Y31202D01*
X12479Y31300D01*
X12466Y31398D01*
X12428Y31489D01*
X12368Y31568D01*
X12289Y31628D01*
X12198Y31666D01*
X12100Y31679D01*
D02*
G37*
G36*
X3100D02*
X3002Y31666D01*
X2911Y31628D01*
X2832Y31568D01*
X2772Y31489D01*
X2734Y31398D01*
X2721Y31300D01*
X2734Y31202D01*
X2772Y31111D01*
X2832Y31032D01*
X2911Y30972D01*
X3002Y30934D01*
X3100Y30921D01*
X3198Y30934D01*
X3289Y30972D01*
X3368Y31032D01*
X3428Y31111D01*
X3466Y31202D01*
X3479Y31300D01*
X3466Y31398D01*
X3428Y31489D01*
X3368Y31568D01*
X3289Y31628D01*
X3198Y31666D01*
X3100Y31679D01*
D02*
G37*
G36*
X12100Y30679D02*
X12002Y30666D01*
X11911Y30628D01*
X11832Y30568D01*
X11772Y30489D01*
X11759Y30458D01*
X7200D01*
X7140Y30446D01*
X7088Y30412D01*
X5788Y29112D01*
X5754Y29060D01*
X5742Y29000D01*
Y26492D01*
X5734Y26488D01*
X5665Y26435D01*
X5612Y26366D01*
X5578Y26286D01*
X5567Y26200D01*
X5578Y26114D01*
X5612Y26034D01*
X5665Y25965D01*
X5734Y25912D01*
X5814Y25878D01*
X5900Y25867D01*
X5986Y25878D01*
X6066Y25912D01*
X6135Y25965D01*
X6188Y26034D01*
X6222Y26114D01*
X6233Y26200D01*
X6222Y26286D01*
X6188Y26366D01*
X6135Y26435D01*
X6066Y26488D01*
X6058Y26492D01*
Y28935D01*
X7265Y30142D01*
X11759D01*
X11772Y30111D01*
X11832Y30032D01*
X11911Y29972D01*
X12002Y29934D01*
X12100Y29921D01*
X12198Y29934D01*
X12289Y29972D01*
X12368Y30032D01*
X12428Y30111D01*
X12466Y30202D01*
X12479Y30300D01*
X12466Y30398D01*
X12428Y30489D01*
X12368Y30568D01*
X12289Y30628D01*
X12198Y30666D01*
X12100Y30679D01*
D02*
G37*
G36*
X3100D02*
X3002Y30666D01*
X2911Y30628D01*
X2832Y30568D01*
X2772Y30489D01*
X2734Y30398D01*
X2721Y30300D01*
X2734Y30202D01*
X2772Y30111D01*
X2832Y30032D01*
X2911Y29972D01*
X3002Y29934D01*
X3100Y29921D01*
X3198Y29934D01*
X3289Y29972D01*
X3368Y30032D01*
X3428Y30111D01*
X3466Y30202D01*
X3479Y30300D01*
X3466Y30398D01*
X3428Y30489D01*
X3368Y30568D01*
X3289Y30628D01*
X3198Y30666D01*
X3100Y30679D01*
D02*
G37*
G36*
X12100Y29679D02*
X12002Y29666D01*
X11911Y29628D01*
X11832Y29568D01*
X11772Y29489D01*
X11734Y29398D01*
X11721Y29300D01*
X11734Y29202D01*
X11772Y29111D01*
X11832Y29032D01*
X11911Y28972D01*
X12002Y28934D01*
X12100Y28921D01*
X12198Y28934D01*
X12289Y28972D01*
X12368Y29032D01*
X12428Y29111D01*
X12466Y29202D01*
X12479Y29300D01*
X12466Y29398D01*
X12428Y29489D01*
X12368Y29568D01*
X12289Y29628D01*
X12198Y29666D01*
X12100Y29679D01*
D02*
G37*
G36*
X3100D02*
X3002Y29666D01*
X2911Y29628D01*
X2832Y29568D01*
X2772Y29489D01*
X2734Y29398D01*
X2721Y29300D01*
X2734Y29202D01*
X2772Y29111D01*
X2832Y29032D01*
X2911Y28972D01*
X3002Y28934D01*
X3100Y28921D01*
X3198Y28934D01*
X3289Y28972D01*
X3368Y29032D01*
X3428Y29111D01*
X3466Y29202D01*
X3479Y29300D01*
X3466Y29398D01*
X3428Y29489D01*
X3368Y29568D01*
X3289Y29628D01*
X3198Y29666D01*
X3100Y29679D01*
D02*
G37*
G36*
X16750Y28645D02*
Y28450D01*
X16945D01*
X16935Y28498D01*
X16880Y28580D01*
X16798Y28635D01*
X16750Y28645D01*
D02*
G37*
G36*
X16650D02*
X16602Y28635D01*
X16520Y28580D01*
X16465Y28498D01*
X16455Y28450D01*
X16650D01*
Y28645D01*
D02*
G37*
G36*
X16945Y28350D02*
X16750D01*
Y28155D01*
X16798Y28165D01*
X16880Y28220D01*
X16935Y28302D01*
X16945Y28350D01*
D02*
G37*
G36*
X16650D02*
X16455D01*
X16465Y28302D01*
X16520Y28220D01*
X16602Y28165D01*
X16650Y28155D01*
Y28350D01*
D02*
G37*
G36*
X12100Y28679D02*
X12002Y28666D01*
X11911Y28628D01*
X11832Y28568D01*
X11772Y28489D01*
X11734Y28398D01*
X11721Y28300D01*
X11734Y28202D01*
X11772Y28111D01*
X11832Y28032D01*
X11911Y27972D01*
X12002Y27934D01*
X12100Y27921D01*
X12198Y27934D01*
X12289Y27972D01*
X12368Y28032D01*
X12428Y28111D01*
X12466Y28202D01*
X12479Y28300D01*
X12466Y28398D01*
X12428Y28489D01*
X12368Y28568D01*
X12289Y28628D01*
X12198Y28666D01*
X12100Y28679D01*
D02*
G37*
G36*
X3100D02*
X3002Y28666D01*
X2911Y28628D01*
X2832Y28568D01*
X2772Y28489D01*
X2734Y28398D01*
X2721Y28300D01*
X2734Y28202D01*
X2772Y28111D01*
X2832Y28032D01*
X2911Y27972D01*
X3002Y27934D01*
X3100Y27921D01*
X3198Y27934D01*
X3289Y27972D01*
X3368Y28032D01*
X3428Y28111D01*
X3466Y28202D01*
X3479Y28300D01*
X3466Y28398D01*
X3428Y28489D01*
X3368Y28568D01*
X3289Y28628D01*
X3198Y28666D01*
X3100Y28679D01*
D02*
G37*
G36*
X12100Y27679D02*
X12002Y27666D01*
X11911Y27628D01*
X11832Y27568D01*
X11772Y27489D01*
X11734Y27398D01*
X11721Y27300D01*
X11734Y27202D01*
X11772Y27111D01*
X11832Y27032D01*
X11911Y26972D01*
X12002Y26934D01*
X12100Y26921D01*
X12198Y26934D01*
X12289Y26972D01*
X12368Y27032D01*
X12428Y27111D01*
X12466Y27202D01*
X12479Y27300D01*
X12466Y27398D01*
X12428Y27489D01*
X12368Y27568D01*
X12289Y27628D01*
X12198Y27666D01*
X12100Y27679D01*
D02*
G37*
G36*
X3100D02*
X3002Y27666D01*
X2911Y27628D01*
X2832Y27568D01*
X2772Y27489D01*
X2734Y27398D01*
X2721Y27300D01*
X2734Y27202D01*
X2772Y27111D01*
X2832Y27032D01*
X2911Y26972D01*
X3002Y26934D01*
X3100Y26921D01*
X3198Y26934D01*
X3289Y26972D01*
X3368Y27032D01*
X3428Y27111D01*
X3466Y27202D01*
X3479Y27300D01*
X3466Y27398D01*
X3428Y27489D01*
X3368Y27568D01*
X3289Y27628D01*
X3198Y27666D01*
X3100Y27679D01*
D02*
G37*
G36*
X3150Y26692D02*
Y26350D01*
X3492D01*
X3485Y26403D01*
X3445Y26499D01*
X3382Y26582D01*
X3299Y26645D01*
X3203Y26685D01*
X3150Y26692D01*
D02*
G37*
G36*
X3050D02*
X2997Y26685D01*
X2901Y26645D01*
X2818Y26582D01*
X2755Y26499D01*
X2715Y26403D01*
X2708Y26350D01*
X3050D01*
Y26692D01*
D02*
G37*
G36*
X12100Y26679D02*
X12002Y26666D01*
X11911Y26628D01*
X11832Y26568D01*
X11772Y26489D01*
X11734Y26398D01*
X11721Y26300D01*
X11734Y26202D01*
X11772Y26111D01*
X11832Y26032D01*
X11911Y25972D01*
X12002Y25934D01*
X12100Y25921D01*
X12198Y25934D01*
X12289Y25972D01*
X12368Y26032D01*
X12428Y26111D01*
X12466Y26202D01*
X12479Y26300D01*
X12466Y26398D01*
X12428Y26489D01*
X12368Y26568D01*
X12289Y26628D01*
X12198Y26666D01*
X12100Y26679D01*
D02*
G37*
G36*
X3492Y26250D02*
X3150D01*
Y25908D01*
X3203Y25915D01*
X3299Y25955D01*
X3382Y26018D01*
X3445Y26101D01*
X3485Y26197D01*
X3492Y26250D01*
D02*
G37*
G36*
X3050D02*
X2708D01*
X2715Y26197D01*
X2755Y26101D01*
X2818Y26018D01*
X2901Y25955D01*
X2997Y25915D01*
X3050Y25908D01*
Y26250D01*
D02*
G37*
G36*
X17800Y33333D02*
X17714Y33322D01*
X17634Y33288D01*
X17565Y33235D01*
X17512Y33166D01*
X17478Y33086D01*
X17467Y33000D01*
X17478Y32914D01*
X17512Y32834D01*
X17565Y32765D01*
X17634Y32712D01*
X17714Y32678D01*
X17800Y32667D01*
X17813Y32669D01*
X17878Y32604D01*
X17888Y32588D01*
X21142Y29335D01*
Y25992D01*
X21134Y25988D01*
X21065Y25935D01*
X21012Y25866D01*
X20978Y25786D01*
X20967Y25700D01*
X20978Y25614D01*
X21012Y25534D01*
X21065Y25465D01*
X21134Y25412D01*
X21214Y25378D01*
X21300Y25367D01*
X21386Y25378D01*
X21466Y25412D01*
X21535Y25465D01*
X21588Y25534D01*
X21622Y25614D01*
X21633Y25700D01*
X21622Y25786D01*
X21588Y25866D01*
X21535Y25935D01*
X21466Y25988D01*
X21458Y25992D01*
Y29400D01*
X21446Y29460D01*
X21412Y29512D01*
X18122Y32801D01*
X18112Y32817D01*
X18090Y32838D01*
X18122Y32914D01*
X18133Y33000D01*
X18122Y33086D01*
X18088Y33166D01*
X18035Y33235D01*
X17966Y33288D01*
X17886Y33322D01*
X17800Y33333D01*
D02*
G37*
G36*
X8700Y27533D02*
X8614Y27522D01*
X8534Y27488D01*
X8465Y27435D01*
X8412Y27366D01*
X8378Y27286D01*
X8367Y27200D01*
X8378Y27114D01*
X8412Y27034D01*
X8465Y26965D01*
X8534Y26912D01*
X8614Y26878D01*
X8700Y26867D01*
X8786Y26878D01*
X8795Y26882D01*
X10888Y24788D01*
X10940Y24754D01*
X11000Y24742D01*
X19200D01*
X19260Y24754D01*
X19312Y24788D01*
X20245Y25721D01*
X20279Y25773D01*
X20291Y25833D01*
Y25981D01*
X20366Y26012D01*
X20435Y26065D01*
X20488Y26134D01*
X20522Y26214D01*
X20533Y26300D01*
X20522Y26387D01*
X20488Y26467D01*
X20435Y26536D01*
X20366Y26589D01*
X20286Y26622D01*
X20200Y26633D01*
X20114Y26622D01*
X20034Y26589D01*
X19965Y26536D01*
X19912Y26467D01*
X19878Y26387D01*
X19867Y26300D01*
X19878Y26214D01*
X19912Y26134D01*
X19965Y26065D01*
X19975Y26057D01*
Y25898D01*
X19135Y25058D01*
X11065D01*
X9018Y27105D01*
X9022Y27114D01*
X9033Y27200D01*
X9022Y27286D01*
X8988Y27366D01*
X8935Y27435D01*
X8866Y27488D01*
X8786Y27522D01*
X8700Y27533D01*
D02*
G37*
G36*
X17450Y23595D02*
Y23400D01*
X17645D01*
X17636Y23448D01*
X17580Y23530D01*
X17498Y23586D01*
X17450Y23595D01*
D02*
G37*
G36*
X17350D02*
X17302Y23586D01*
X17220Y23530D01*
X17164Y23448D01*
X17155Y23400D01*
X17350D01*
Y23595D01*
D02*
G37*
G36*
X16900Y24233D02*
X16814Y24222D01*
X16734Y24188D01*
X16665Y24135D01*
X16612Y24066D01*
X16578Y23986D01*
X16567Y23900D01*
X16578Y23814D01*
X16582Y23805D01*
X16135Y23358D01*
X15392D01*
X15388Y23366D01*
X15335Y23435D01*
X15266Y23488D01*
X15186Y23522D01*
X15100Y23533D01*
X15014Y23522D01*
X15005Y23518D01*
X14612Y23912D01*
X14560Y23946D01*
X14500Y23958D01*
X12092D01*
X12088Y23966D01*
X12035Y24035D01*
X11966Y24088D01*
X11886Y24122D01*
X11800Y24133D01*
X11714Y24122D01*
X11634Y24088D01*
X11565Y24035D01*
X11512Y23966D01*
X11478Y23886D01*
X11467Y23800D01*
X11478Y23714D01*
X11512Y23634D01*
X11565Y23565D01*
X11634Y23512D01*
X11714Y23478D01*
X11800Y23467D01*
X11886Y23478D01*
X11966Y23512D01*
X12035Y23565D01*
X12088Y23634D01*
X12092Y23642D01*
X14435D01*
X14782Y23295D01*
X14778Y23286D01*
X14767Y23200D01*
X14778Y23114D01*
X14812Y23034D01*
X14865Y22965D01*
X14934Y22912D01*
X15014Y22878D01*
X15100Y22867D01*
X15186Y22878D01*
X15266Y22912D01*
X15335Y22965D01*
X15388Y23034D01*
X15392Y23042D01*
X16200D01*
X16260Y23054D01*
X16312Y23088D01*
X16805Y23582D01*
X16814Y23578D01*
X16900Y23567D01*
X16986Y23578D01*
X17066Y23612D01*
X17135Y23665D01*
X17188Y23734D01*
X17222Y23814D01*
X17233Y23900D01*
X17222Y23986D01*
X17188Y24066D01*
X17135Y24135D01*
X17066Y24188D01*
X16986Y24222D01*
X16900Y24233D01*
D02*
G37*
G36*
X17645Y23300D02*
X17450D01*
Y23105D01*
X17498Y23115D01*
X17580Y23170D01*
X17636Y23252D01*
X17645Y23300D01*
D02*
G37*
G36*
X17350D02*
X17155D01*
X17164Y23252D01*
X17220Y23170D01*
X17302Y23115D01*
X17350Y23105D01*
Y23300D01*
D02*
G37*
G36*
X19450Y22845D02*
Y22650D01*
X19645D01*
X19635Y22698D01*
X19580Y22780D01*
X19498Y22836D01*
X19450Y22845D01*
D02*
G37*
G36*
X19350D02*
X19302Y22836D01*
X19220Y22780D01*
X19165Y22698D01*
X19155Y22650D01*
X19350D01*
Y22845D01*
D02*
G37*
G36*
X19645Y22550D02*
X19450D01*
Y22355D01*
X19498Y22364D01*
X19580Y22420D01*
X19635Y22502D01*
X19645Y22550D01*
D02*
G37*
G36*
X19350D02*
X19155D01*
X19165Y22502D01*
X19220Y22420D01*
X19302Y22364D01*
X19350Y22355D01*
Y22550D01*
D02*
G37*
G36*
X11800Y21633D02*
X11714Y21622D01*
X11634Y21588D01*
X11565Y21535D01*
X11512Y21466D01*
X11478Y21386D01*
X11467Y21300D01*
X11478Y21214D01*
X11493Y21180D01*
X10906Y20594D01*
X10878Y20551D01*
X10867Y20500D01*
Y17855D01*
X10345Y17333D01*
X9600D01*
X9549Y17322D01*
X9506Y17294D01*
X9306Y17094D01*
X9278Y17051D01*
X9267Y17000D01*
Y16748D01*
X9259Y16745D01*
X9200Y16700D01*
X9155Y16641D01*
X9127Y16573D01*
X9118Y16500D01*
X9127Y16427D01*
X9155Y16359D01*
X9200Y16300D01*
X9225Y16282D01*
Y16218D01*
X9200Y16200D01*
X9155Y16141D01*
X9127Y16073D01*
X9118Y16000D01*
X9127Y15927D01*
X9155Y15859D01*
X9200Y15800D01*
X9225Y15782D01*
Y15718D01*
X9200Y15700D01*
X9155Y15641D01*
X9127Y15573D01*
X9118Y15500D01*
X9127Y15427D01*
X9155Y15359D01*
X9200Y15300D01*
X9225Y15282D01*
Y15218D01*
X9200Y15200D01*
X9155Y15141D01*
X9127Y15073D01*
X9118Y15000D01*
X9127Y14927D01*
X9155Y14859D01*
X9200Y14800D01*
X9225Y14782D01*
Y14718D01*
X9200Y14700D01*
X9155Y14641D01*
X9152Y14633D01*
X9055D01*
X8733Y14955D01*
Y18192D01*
X8722Y18242D01*
X8694Y18285D01*
X8670Y18309D01*
X8688Y18334D01*
X8722Y18414D01*
X8733Y18500D01*
X8722Y18586D01*
X8688Y18666D01*
X8635Y18735D01*
X8566Y18788D01*
X8486Y18822D01*
X8400Y18833D01*
X8314Y18822D01*
X8234Y18788D01*
X8165Y18735D01*
X8112Y18666D01*
X8078Y18586D01*
X8067Y18500D01*
X8078Y18414D01*
X8112Y18334D01*
X8165Y18265D01*
X8234Y18212D01*
X8314Y18178D01*
X8400Y18167D01*
X8433Y18171D01*
X8467Y18137D01*
Y14900D01*
X8478Y14849D01*
X8506Y14806D01*
X8906Y14406D01*
X8949Y14378D01*
X9000Y14367D01*
X9152D01*
X9155Y14359D01*
X9200Y14300D01*
X9259Y14255D01*
X9327Y14227D01*
X9400Y14218D01*
X9473Y14227D01*
X9541Y14255D01*
X9570Y14278D01*
X9620Y14253D01*
Y14220D01*
X9767D01*
Y14155D01*
X9445Y13833D01*
X6155D01*
X4494Y15494D01*
X4451Y15522D01*
X4400Y15533D01*
X3229D01*
X3222Y15586D01*
X3188Y15666D01*
X3135Y15735D01*
X3066Y15788D01*
X2986Y15822D01*
X2900Y15833D01*
X2814Y15822D01*
X2734Y15788D01*
X2665Y15735D01*
X2612Y15666D01*
X2578Y15586D01*
X2567Y15500D01*
X2578Y15414D01*
X2612Y15334D01*
X2665Y15265D01*
X2734Y15212D01*
X2814Y15178D01*
X2900Y15167D01*
X2986Y15178D01*
X3066Y15212D01*
X3135Y15265D01*
X3138Y15267D01*
X4345D01*
X6006Y13606D01*
X6049Y13578D01*
X6100Y13567D01*
X9500D01*
X9551Y13578D01*
X9594Y13606D01*
X9994Y14006D01*
X10022Y14049D01*
X10033Y14100D01*
Y14220D01*
X10180D01*
Y14780D01*
X10172D01*
X10148Y14830D01*
X10162Y14849D01*
X10192Y14922D01*
X10196Y14950D01*
X9900D01*
Y15050D01*
X10196D01*
X10192Y15078D01*
X10162Y15151D01*
X10114Y15214D01*
X10100Y15225D01*
Y15275D01*
X10114Y15286D01*
X10162Y15349D01*
X10192Y15422D01*
X10196Y15450D01*
X9900D01*
Y15550D01*
X10196D01*
X10192Y15578D01*
X10162Y15651D01*
X10114Y15714D01*
X10092Y15731D01*
Y15794D01*
X10100Y15800D01*
X10145Y15859D01*
X10173Y15927D01*
X10182Y16000D01*
X10173Y16073D01*
X10145Y16141D01*
X10100Y16200D01*
X10092Y16206D01*
Y16269D01*
X10114Y16286D01*
X10162Y16349D01*
X10192Y16422D01*
X10196Y16450D01*
X9900D01*
Y16500D01*
X9850D01*
Y16796D01*
X9822Y16792D01*
X9749Y16762D01*
X9686Y16714D01*
X9669Y16692D01*
X9606D01*
X9600Y16700D01*
X9541Y16745D01*
X9533Y16748D01*
Y16945D01*
X9655Y17067D01*
X10400D01*
X10451Y17078D01*
X10494Y17106D01*
X11094Y17706D01*
X11122Y17749D01*
X11133Y17800D01*
Y20445D01*
X11680Y20993D01*
X11714Y20978D01*
X11800Y20967D01*
X11886Y20978D01*
X11966Y21012D01*
X12035Y21065D01*
X12088Y21134D01*
X12122Y21214D01*
X12133Y21300D01*
X12122Y21386D01*
X12088Y21466D01*
X12035Y21535D01*
X11966Y21588D01*
X11886Y21622D01*
X11800Y21633D01*
D02*
G37*
G36*
X11900Y23333D02*
X11814Y23322D01*
X11734Y23288D01*
X11665Y23235D01*
X11612Y23166D01*
X11578Y23086D01*
X11567Y23000D01*
X11578Y22914D01*
X11612Y22834D01*
X11665Y22765D01*
X11734Y22712D01*
X11814Y22678D01*
X11900Y22667D01*
X11986Y22678D01*
X12066Y22712D01*
X12135Y22765D01*
X12188Y22834D01*
X12202Y22867D01*
X13645D01*
X15193Y21320D01*
X15178Y21286D01*
X15167Y21200D01*
X15178Y21114D01*
X15212Y21034D01*
X15265Y20965D01*
X15334Y20912D01*
X15414Y20878D01*
X15500Y20867D01*
X15586Y20878D01*
X15666Y20912D01*
X15735Y20965D01*
X15788Y21034D01*
X15822Y21114D01*
X15833Y21200D01*
X15822Y21286D01*
X15788Y21366D01*
X15735Y21435D01*
X15666Y21488D01*
X15586Y21522D01*
X15500Y21533D01*
X15414Y21522D01*
X15380Y21507D01*
X13794Y23094D01*
X13751Y23122D01*
X13700Y23133D01*
X12202D01*
X12188Y23166D01*
X12135Y23235D01*
X12066Y23288D01*
X11986Y23322D01*
X11900Y23333D01*
D02*
G37*
G36*
X10591Y22892D02*
X10504Y22881D01*
X10424Y22847D01*
X10355Y22794D01*
X10302Y22725D01*
X10269Y22645D01*
X10258Y22559D01*
X10269Y22473D01*
X10302Y22393D01*
X10355Y22324D01*
X10424Y22271D01*
X10468Y22253D01*
Y21389D01*
X8595Y19516D01*
X8551Y19534D01*
X8465Y19545D01*
X8378Y19534D01*
X8298Y19501D01*
X8229Y19448D01*
X8176Y19379D01*
X8143Y19299D01*
X8132Y19213D01*
X8143Y19126D01*
X8176Y19046D01*
X8229Y18977D01*
X8298Y18924D01*
X8378Y18891D01*
X8465Y18880D01*
X8551Y18891D01*
X8631Y18924D01*
X8700Y18977D01*
X8753Y19046D01*
X8786Y19126D01*
X8797Y19213D01*
X8786Y19299D01*
X8768Y19343D01*
X10677Y21252D01*
X10704Y21292D01*
X10713Y21339D01*
Y22253D01*
X10757Y22271D01*
X10826Y22324D01*
X10879Y22393D01*
X10912Y22473D01*
X10923Y22559D01*
X10912Y22645D01*
X10879Y22725D01*
X10826Y22794D01*
X10757Y22847D01*
X10677Y22881D01*
X10591Y22892D01*
D02*
G37*
G36*
X15446Y19717D02*
X14754D01*
Y19026D01*
X15446D01*
Y19717D01*
D02*
G37*
G36*
X9950Y16796D02*
Y16550D01*
X10196D01*
X10192Y16578D01*
X10162Y16651D01*
X10114Y16714D01*
X10051Y16762D01*
X9978Y16792D01*
X9950Y16796D01*
D02*
G37*
G36*
X15100Y16177D02*
X15010Y16165D01*
X14926Y16130D01*
X14853Y16075D01*
X14798Y16003D01*
X14763Y15919D01*
X14751Y15828D01*
X14763Y15738D01*
X14798Y15654D01*
X14853Y15582D01*
X14926Y15526D01*
X15010Y15491D01*
X15100Y15480D01*
X15190Y15491D01*
X15274Y15526D01*
X15347Y15582D01*
X15402Y15654D01*
X15437Y15738D01*
X15449Y15828D01*
X15437Y15919D01*
X15402Y16003D01*
X15347Y16075D01*
X15274Y16130D01*
X15190Y16165D01*
X15100Y16177D01*
D02*
G37*
G36*
X1475Y14875D02*
X725D01*
Y14125D01*
X1475D01*
Y14875D01*
D02*
G37*
G36*
X1150Y13892D02*
Y13550D01*
X1492D01*
X1485Y13603D01*
X1445Y13699D01*
X1382Y13782D01*
X1299Y13845D01*
X1203Y13885D01*
X1150Y13892D01*
D02*
G37*
G36*
X1050D02*
X997Y13885D01*
X901Y13845D01*
X818Y13782D01*
X755Y13699D01*
X715Y13603D01*
X708Y13550D01*
X1050D01*
Y13892D01*
D02*
G37*
G36*
X1492Y13450D02*
X1150D01*
Y13108D01*
X1203Y13115D01*
X1299Y13155D01*
X1382Y13218D01*
X1445Y13301D01*
X1485Y13397D01*
X1492Y13450D01*
D02*
G37*
G36*
X1050D02*
X708D01*
X715Y13397D01*
X755Y13301D01*
X818Y13218D01*
X901Y13155D01*
X997Y13115D01*
X1050Y13108D01*
Y13450D01*
D02*
G37*
G36*
X21260Y2053D02*
X21090Y2036D01*
X20926Y1986D01*
X20776Y1906D01*
X20644Y1797D01*
X20535Y1665D01*
X20455Y1515D01*
X20405Y1351D01*
X20388Y1181D01*
X20405Y1011D01*
X20455Y848D01*
X20535Y697D01*
X20644Y565D01*
X20776Y456D01*
X20926Y376D01*
X21090Y326D01*
X21260Y310D01*
X21430Y326D01*
X21593Y376D01*
X21744Y456D01*
X21876Y565D01*
X21985Y697D01*
X22065Y848D01*
X22115Y1011D01*
X22131Y1181D01*
X22115Y1351D01*
X22065Y1515D01*
X21985Y1665D01*
X21876Y1797D01*
X21744Y1906D01*
X21593Y1986D01*
X21430Y2036D01*
X21260Y2053D01*
D02*
G37*
G36*
X1181D02*
X1011Y2036D01*
X848Y1986D01*
X697Y1906D01*
X565Y1797D01*
X456Y1665D01*
X376Y1515D01*
X326Y1351D01*
X310Y1181D01*
X326Y1011D01*
X376Y848D01*
X456Y697D01*
X565Y565D01*
X697Y456D01*
X848Y376D01*
X1011Y326D01*
X1181Y310D01*
X1351Y326D01*
X1515Y376D01*
X1665Y456D01*
X1797Y565D01*
X1906Y697D01*
X1986Y848D01*
X2036Y1011D01*
X2053Y1181D01*
X2036Y1351D01*
X1986Y1515D01*
X1906Y1665D01*
X1797Y1797D01*
X1665Y1906D01*
X1515Y1986D01*
X1351Y2036D01*
X1181Y2053D01*
D02*
G37*
%LPD*%
D14*
X10591Y21339D02*
Y22559D01*
X8465Y19213D02*
X10591Y21339D01*
D15*
X11900Y23000D02*
X13700D01*
X15500Y21200D01*
X8400Y18392D02*
Y18500D01*
Y18392D02*
X8600Y18192D01*
Y14900D02*
Y18192D01*
X2959Y15400D02*
X4400D01*
X6100Y13700D01*
X9500D01*
X9900Y14100D02*
Y14500D01*
X9500Y13700D02*
X9900Y14100D01*
X9400Y16500D02*
Y17000D01*
X9600Y17200D01*
X10400D02*
X11000Y17800D01*
X9600Y17200D02*
X10400D01*
X11000Y20500D02*
X11800Y21300D01*
X11000Y17800D02*
Y20500D01*
X9000Y14500D02*
X9400D01*
X8600Y14900D02*
X9000Y14500D01*
D65*
X17800Y32905D02*
Y33000D01*
Y32905D02*
X18000Y32705D01*
Y32700D02*
Y32705D01*
Y32700D02*
X21300Y29400D01*
Y25700D02*
Y29400D01*
X15100Y23200D02*
X16200D01*
X16900Y23900D01*
X11800Y23800D02*
X14500D01*
X15100Y23200D01*
X20133Y26233D02*
X20200Y26300D01*
X20133Y25833D02*
Y26233D01*
X19200Y24900D02*
X20133Y25833D01*
X11000Y24900D02*
X19200D01*
X8700Y27200D02*
X11000Y24900D01*
X7200Y30300D02*
X12100D01*
X5900Y29000D02*
X7200Y30300D01*
X5900Y26200D02*
Y29000D01*
D67*
X9400Y16500D02*
D03*
X9900D02*
D03*
X9400Y16000D02*
D03*
X9900D02*
D03*
X9400Y15500D02*
D03*
X9900D02*
D03*
X9400Y15000D02*
D03*
X9900D02*
D03*
X9400Y14500D02*
D03*
D68*
X9900D02*
D03*
D69*
X15100Y15828D02*
D03*
D70*
Y19372D02*
D03*
D71*
X1100Y14500D02*
D03*
X12100Y33300D02*
D03*
X3100D02*
D03*
D72*
X1100Y13500D02*
D03*
X12100Y32300D02*
D03*
Y31300D02*
D03*
Y30300D02*
D03*
Y29300D02*
D03*
Y28300D02*
D03*
Y27300D02*
D03*
Y26300D02*
D03*
X3100Y32300D02*
D03*
Y31300D02*
D03*
Y30300D02*
D03*
Y29300D02*
D03*
Y28300D02*
D03*
Y27300D02*
D03*
Y26300D02*
D03*
D73*
X8465Y19213D02*
D03*
X10591Y22559D02*
D03*
X17800Y33000D02*
D03*
X21300Y25700D02*
D03*
X16900Y23900D02*
D03*
X15100Y23200D02*
D03*
X11800Y23800D02*
D03*
X20200Y26300D02*
D03*
X8700Y27200D02*
D03*
X15500Y21200D02*
D03*
X11900Y23000D02*
D03*
X8400Y18500D02*
D03*
X2900Y15500D02*
D03*
X5900Y26200D02*
D03*
X11800Y21300D02*
D03*
D74*
X1181Y1181D02*
D03*
X21260D02*
D03*
Y34252D02*
D03*
X1181D02*
D03*
D75*
X17250Y32050D02*
D03*
X16700Y28400D02*
D03*
X17400Y23350D02*
D03*
X19400Y22600D02*
D03*
M02*
