G04*
G04 #@! TF.GenerationSoftware,Altium Limited,Altium Designer,20.1.14 (287)*
G04*
G04 Layer_Physical_Order=1*
G04 Layer_Color=255*
%FSLAX24Y24*%
%MOIN*%
G70*
G04*
G04 #@! TF.SameCoordinates,52465854-39A3-47B8-9217-5B2D91F539B0*
G04*
G04*
G04 #@! TF.FilePolarity,Positive*
G04*
G01*
G75*
%ADD14C,0.0080*%
%ADD15C,0.0100*%
%ADD17R,0.0433X0.0531*%
%ADD18R,0.0728X0.0531*%
%ADD19R,0.0689X0.0551*%
%ADD20R,0.0709X0.0531*%
%ADD21R,0.0315X0.0118*%
%ADD22R,0.0118X0.0315*%
%ADD23R,0.0413X0.0945*%
%ADD24R,0.4193X0.3504*%
%ADD25R,0.0709X0.0472*%
%ADD26O,0.0138X0.0630*%
%ADD27O,0.0630X0.0138*%
%ADD28R,0.0453X0.0709*%
%ADD29R,0.0709X0.0453*%
%ADD30R,0.0098X0.0138*%
%ADD31R,0.0138X0.0098*%
%ADD32R,0.0374X0.0669*%
%ADD33R,0.0748X0.0374*%
%ADD34R,0.1240X0.1882*%
%ADD35R,0.0531X0.0709*%
%ADD36R,0.0531X0.0433*%
%ADD65C,0.0150*%
%ADD66C,0.0180*%
%ADD67C,0.0400*%
%ADD68R,0.0400X0.0400*%
%ADD69C,0.0531*%
%ADD70R,0.0531X0.0531*%
%ADD71R,0.0591X0.0591*%
%ADD72C,0.0591*%
%ADD73C,0.0500*%
%ADD74C,0.1575*%
%ADD75C,0.0300*%
G36*
X22495Y143D02*
X143D01*
Y35290D01*
X22495D01*
Y143D01*
D02*
G37*
%LPC*%
G36*
X21260Y35124D02*
X21090Y35107D01*
X20926Y35057D01*
X20776Y34977D01*
X20644Y34868D01*
X20535Y34736D01*
X20455Y34586D01*
X20405Y34422D01*
X20388Y34252D01*
X20405Y34082D01*
X20455Y33918D01*
X20535Y33768D01*
X20644Y33636D01*
X20776Y33527D01*
X20926Y33447D01*
X21090Y33397D01*
X21260Y33380D01*
X21430Y33397D01*
X21593Y33447D01*
X21744Y33527D01*
X21876Y33636D01*
X21985Y33768D01*
X22065Y33918D01*
X22115Y34082D01*
X22131Y34252D01*
X22115Y34422D01*
X22065Y34586D01*
X21985Y34736D01*
X21876Y34868D01*
X21744Y34977D01*
X21593Y35057D01*
X21430Y35107D01*
X21260Y35124D01*
D02*
G37*
G36*
X1181D02*
X1011Y35107D01*
X848Y35057D01*
X697Y34977D01*
X565Y34868D01*
X456Y34736D01*
X376Y34586D01*
X326Y34422D01*
X310Y34252D01*
X326Y34082D01*
X376Y33918D01*
X456Y33768D01*
X565Y33636D01*
X697Y33527D01*
X848Y33447D01*
X1011Y33397D01*
X1181Y33380D01*
X1351Y33397D01*
X1515Y33447D01*
X1665Y33527D01*
X1797Y33636D01*
X1906Y33768D01*
X1986Y33918D01*
X2036Y34082D01*
X2053Y34252D01*
X2036Y34422D01*
X1986Y34586D01*
X1906Y34736D01*
X1797Y34868D01*
X1665Y34977D01*
X1515Y35057D01*
X1351Y35107D01*
X1181Y35124D01*
D02*
G37*
G36*
X12475Y33675D02*
X11725D01*
Y32925D01*
X12475D01*
Y33675D01*
D02*
G37*
G36*
X3475D02*
X2725D01*
Y32925D01*
X3475D01*
Y33675D01*
D02*
G37*
G36*
X17812Y34358D02*
X13700D01*
X13640Y34346D01*
X13588Y34312D01*
X13188Y33912D01*
X13154Y33860D01*
X13142Y33800D01*
Y25458D01*
X10965D01*
X10212Y26212D01*
X10160Y26246D01*
X10100Y26258D01*
X8100D01*
X8040Y26246D01*
X7988Y26212D01*
X7954Y26160D01*
X7946Y26119D01*
X7273Y25446D01*
X7227Y25465D01*
Y25554D01*
X8570Y26897D01*
X8614Y26878D01*
X8700Y26867D01*
X8786Y26878D01*
X8866Y26912D01*
X8935Y26965D01*
X8988Y27034D01*
X9022Y27114D01*
X9033Y27200D01*
X9022Y27286D01*
X8988Y27366D01*
X8935Y27435D01*
X8866Y27488D01*
X8786Y27522D01*
X8700Y27533D01*
X8614Y27522D01*
X8534Y27488D01*
X8465Y27435D01*
X8412Y27366D01*
X8378Y27286D01*
X8367Y27200D01*
X8378Y27114D01*
X8397Y27070D01*
X7087Y25760D01*
X7040Y25779D01*
Y27317D01*
X10865Y31142D01*
X11759D01*
X11772Y31111D01*
X11832Y31032D01*
X11911Y30972D01*
X12002Y30934D01*
X12100Y30921D01*
X12198Y30934D01*
X12289Y30972D01*
X12368Y31032D01*
X12428Y31111D01*
X12466Y31202D01*
X12479Y31300D01*
X12466Y31398D01*
X12428Y31489D01*
X12368Y31568D01*
X12289Y31628D01*
X12198Y31666D01*
X12100Y31679D01*
X12002Y31666D01*
X11911Y31628D01*
X11832Y31568D01*
X11772Y31489D01*
X11759Y31458D01*
X10800D01*
X10740Y31446D01*
X10688Y31412D01*
X6788Y27512D01*
X6754Y27460D01*
X6742Y27400D01*
X6754Y27340D01*
X6775Y27308D01*
Y25750D01*
X6725Y25717D01*
X6700Y25722D01*
X6451D01*
X6167Y26006D01*
X6188Y26034D01*
X6222Y26114D01*
X6233Y26200D01*
X6222Y26286D01*
X6188Y26366D01*
X6135Y26435D01*
X6066Y26488D01*
X5986Y26522D01*
X5900Y26533D01*
X5814Y26522D01*
X5734Y26488D01*
X5665Y26435D01*
X5612Y26366D01*
X5578Y26286D01*
X5567Y26200D01*
X5578Y26114D01*
X5612Y26034D01*
X5665Y25965D01*
X5734Y25912D01*
X5814Y25878D01*
X5900Y25867D01*
X5953Y25874D01*
X6313Y25513D01*
X6353Y25487D01*
X6400Y25478D01*
X6582D01*
X6587Y25453D01*
X6589Y25451D01*
Y25014D01*
X6539Y24976D01*
X6514Y24981D01*
X6456Y24970D01*
X6416Y24943D01*
X6375Y24970D01*
X6317Y24981D01*
X6259Y24970D01*
X6219Y24943D01*
X6179Y24970D01*
X6120Y24981D01*
X6062Y24970D01*
X6022Y24943D01*
X5982Y24970D01*
X5924Y24981D01*
X5866Y24970D01*
X5816Y24937D01*
X5783Y24888D01*
X5772Y24830D01*
Y24337D01*
X5783Y24279D01*
X5816Y24230D01*
X5866Y24197D01*
X5924Y24186D01*
X5982Y24197D01*
X6022Y24224D01*
X6062Y24197D01*
X6120Y24186D01*
X6179Y24197D01*
X6219Y24224D01*
X6259Y24197D01*
X6317Y24186D01*
X6375Y24197D01*
X6416Y24224D01*
X6456Y24197D01*
X6514Y24186D01*
X6572Y24197D01*
X6613Y24224D01*
X6653Y24197D01*
X6711Y24186D01*
X6769Y24197D01*
X6809Y24224D01*
X6850Y24197D01*
X6908Y24186D01*
X6966Y24197D01*
X7006Y24224D01*
X7047Y24197D01*
X7105Y24186D01*
X7163Y24197D01*
X7203Y24224D01*
X7243Y24197D01*
X7302Y24186D01*
X7360Y24197D01*
X7400Y24224D01*
X7440Y24197D01*
X7498Y24186D01*
X7557Y24197D01*
X7597Y24224D01*
X7637Y24197D01*
X7695Y24186D01*
X7753Y24197D01*
X7794Y24224D01*
X7834Y24197D01*
X7892Y24186D01*
X7950Y24197D01*
X7991Y24224D01*
X8031Y24197D01*
X8089Y24186D01*
X8147Y24197D01*
X8187Y24224D01*
X8228Y24197D01*
X8286Y24186D01*
X8344Y24197D01*
X8384Y24224D01*
X8425Y24197D01*
X8483Y24186D01*
X8541Y24197D01*
X8581Y24224D01*
X8621Y24197D01*
X8680Y24186D01*
X8738Y24197D01*
X8778Y24224D01*
X8818Y24197D01*
X8876Y24186D01*
X8934Y24197D01*
X8984Y24230D01*
X9017Y24279D01*
X9028Y24337D01*
Y24830D01*
X9017Y24888D01*
X8984Y24937D01*
X8934Y24970D01*
X8876Y24981D01*
X8818Y24970D01*
X8778Y24943D01*
X8738Y24970D01*
X8680Y24981D01*
X8621Y24970D01*
X8581Y24943D01*
X8541Y24970D01*
X8483Y24981D01*
X8425Y24970D01*
X8384Y24943D01*
X8344Y24970D01*
X8286Y24981D01*
X8228Y24970D01*
X8187Y24943D01*
X8147Y24970D01*
X8089Y24981D01*
X8031Y24970D01*
X7991Y24943D01*
X7950Y24970D01*
X7892Y24981D01*
X7834Y24970D01*
X7794Y24943D01*
X7753Y24970D01*
X7695Y24981D01*
X7637Y24970D01*
X7597Y24943D01*
X7557Y24970D01*
X7498Y24981D01*
X7474Y24976D01*
X7424Y25014D01*
Y25251D01*
X8115Y25942D01*
X10035D01*
X10788Y25188D01*
X10840Y25154D01*
X10900Y25142D01*
X13212D01*
X13273Y25154D01*
X13324Y25188D01*
X13412Y25276D01*
X13446Y25327D01*
X13458Y25388D01*
Y33735D01*
X13765Y34042D01*
X17747D01*
X17767Y34022D01*
X17788Y33990D01*
X18656Y33122D01*
Y32654D01*
X19544D01*
Y33346D01*
X18879D01*
X18033Y34192D01*
X18012Y34224D01*
X17924Y34312D01*
X17873Y34346D01*
X17812Y34358D01*
D02*
G37*
G36*
X12100Y32679D02*
X12002Y32666D01*
X11911Y32628D01*
X11832Y32568D01*
X11772Y32489D01*
X11734Y32398D01*
X11721Y32300D01*
X11734Y32202D01*
X11772Y32111D01*
X11832Y32032D01*
X11911Y31972D01*
X12002Y31934D01*
X12100Y31921D01*
X12198Y31934D01*
X12289Y31972D01*
X12368Y32032D01*
X12428Y32111D01*
X12466Y32202D01*
X12479Y32300D01*
X12466Y32398D01*
X12428Y32489D01*
X12368Y32568D01*
X12289Y32628D01*
X12198Y32666D01*
X12100Y32679D01*
D02*
G37*
G36*
X3100D02*
X3002Y32666D01*
X2911Y32628D01*
X2832Y32568D01*
X2772Y32489D01*
X2734Y32398D01*
X2721Y32300D01*
X2734Y32202D01*
X2772Y32111D01*
X2832Y32032D01*
X2911Y31972D01*
X3002Y31934D01*
X3100Y31921D01*
X3198Y31934D01*
X3289Y31972D01*
X3368Y32032D01*
X3428Y32111D01*
X3466Y32202D01*
X3479Y32300D01*
X3466Y32398D01*
X3428Y32489D01*
X3368Y32568D01*
X3289Y32628D01*
X3198Y32666D01*
X3100Y32679D01*
D02*
G37*
G36*
X15954Y32217D02*
X15550D01*
Y31901D01*
X15954D01*
Y32217D01*
D02*
G37*
G36*
X15450D02*
X15046D01*
Y31901D01*
X15450D01*
Y32217D01*
D02*
G37*
G36*
X15954Y31801D02*
X15550D01*
Y31485D01*
X15954D01*
Y31801D01*
D02*
G37*
G36*
X15450D02*
X15046D01*
Y31485D01*
X15450D01*
Y31801D01*
D02*
G37*
G36*
X3100Y31679D02*
X3002Y31666D01*
X2911Y31628D01*
X2832Y31568D01*
X2772Y31489D01*
X2734Y31398D01*
X2721Y31300D01*
X2734Y31202D01*
X2772Y31111D01*
X2832Y31032D01*
X2911Y30972D01*
X3002Y30934D01*
X3100Y30921D01*
X3198Y30934D01*
X3289Y30972D01*
X3368Y31032D01*
X3428Y31111D01*
X3466Y31202D01*
X3479Y31300D01*
X3466Y31398D01*
X3428Y31489D01*
X3368Y31568D01*
X3289Y31628D01*
X3198Y31666D01*
X3100Y31679D01*
D02*
G37*
G36*
X18550Y30953D02*
X18342D01*
Y30844D01*
X18550D01*
Y30953D01*
D02*
G37*
G36*
X17800Y33333D02*
X17714Y33322D01*
X17634Y33288D01*
X17565Y33235D01*
X17512Y33166D01*
X17478Y33086D01*
X17477Y33072D01*
X16800D01*
X16753Y33063D01*
X16713Y33037D01*
X16613Y32937D01*
X16587Y32897D01*
X16578Y32850D01*
Y30947D01*
X16587Y30900D01*
X16613Y30860D01*
X16698Y30776D01*
X16679Y30729D01*
X15934D01*
Y31095D01*
X15066D01*
Y30403D01*
X15934D01*
Y30464D01*
X17050D01*
Y30450D01*
X17308D01*
Y30350D01*
X17050D01*
Y30336D01*
X16403D01*
X16352Y30326D01*
X16309Y30297D01*
X16281Y30254D01*
X16271Y30203D01*
Y29958D01*
X15706Y29394D01*
X15678Y29351D01*
X15667Y29300D01*
Y26355D01*
X15601Y26288D01*
X15579Y26256D01*
X14976D01*
Y26022D01*
X14700D01*
X14653Y26013D01*
X14613Y25987D01*
X13913Y25287D01*
X13887Y25247D01*
X13878Y25200D01*
Y23151D01*
X12849Y22122D01*
X11600D01*
X11553Y22113D01*
X11513Y22087D01*
X11160Y21733D01*
X10872D01*
X10853Y21780D01*
X11651Y22578D01*
X11651Y22578D01*
X11694Y22606D01*
X11780Y22693D01*
X11814Y22678D01*
X11900Y22667D01*
X11986Y22678D01*
X12066Y22712D01*
X12135Y22765D01*
X12188Y22834D01*
X12222Y22914D01*
X12233Y23000D01*
X12222Y23086D01*
X12188Y23166D01*
X12135Y23235D01*
X12066Y23288D01*
X11986Y23322D01*
X11900Y23333D01*
X11814Y23322D01*
X11734Y23288D01*
X11665Y23235D01*
X11612Y23166D01*
X11578Y23086D01*
X11567Y23000D01*
X11578Y22914D01*
X11593Y22880D01*
X11506Y22794D01*
X11478Y22751D01*
X11478Y22751D01*
X10657Y21930D01*
X10114D01*
X10076Y21980D01*
X10081Y22005D01*
X10070Y22063D01*
X10043Y22103D01*
X10070Y22143D01*
X10081Y22202D01*
X10070Y22260D01*
X10043Y22300D01*
X10070Y22340D01*
X10081Y22398D01*
X10070Y22457D01*
X10043Y22497D01*
X10070Y22537D01*
X10081Y22595D01*
X10070Y22653D01*
X10043Y22694D01*
X10070Y22734D01*
X10081Y22792D01*
X10070Y22850D01*
X10043Y22891D01*
X10070Y22931D01*
X10081Y22989D01*
X10070Y23047D01*
X10043Y23087D01*
X10070Y23128D01*
X10081Y23186D01*
X10070Y23244D01*
X10043Y23284D01*
X10070Y23325D01*
X10081Y23383D01*
X10070Y23441D01*
X10055Y23463D01*
X10089Y23514D01*
X10092Y23530D01*
X9955D01*
X9930Y23535D01*
X9683D01*
X9437D01*
X9412Y23530D01*
X9275D01*
X9278Y23514D01*
X9312Y23463D01*
X9297Y23441D01*
X9286Y23383D01*
X9297Y23325D01*
X9324Y23284D01*
X9297Y23244D01*
X9286Y23186D01*
X9297Y23128D01*
X9324Y23087D01*
X9297Y23047D01*
X9286Y22989D01*
X9297Y22931D01*
X9324Y22891D01*
X9297Y22850D01*
X9286Y22792D01*
X9297Y22734D01*
X9324Y22694D01*
X9297Y22653D01*
X9286Y22595D01*
X9297Y22537D01*
X9324Y22497D01*
X9297Y22457D01*
X9286Y22398D01*
X9297Y22340D01*
X9324Y22300D01*
X9297Y22260D01*
X9286Y22202D01*
X9297Y22143D01*
X9324Y22103D01*
X9297Y22063D01*
X9286Y22005D01*
X9297Y21947D01*
X9324Y21906D01*
X9297Y21866D01*
X9286Y21808D01*
X9297Y21750D01*
X9324Y21709D01*
X9297Y21669D01*
X9286Y21611D01*
X9297Y21553D01*
X9324Y21513D01*
X9297Y21472D01*
X9286Y21414D01*
X9297Y21356D01*
X9324Y21316D01*
X9297Y21275D01*
X9286Y21217D01*
X9297Y21159D01*
X9324Y21119D01*
X9297Y21079D01*
X9286Y21020D01*
X9297Y20962D01*
X9324Y20922D01*
X9297Y20882D01*
X9286Y20824D01*
X9297Y20766D01*
X9330Y20716D01*
X9379Y20683D01*
X9437Y20672D01*
X9930D01*
X9988Y20683D01*
X10014Y20701D01*
X10136D01*
X10241Y20597D01*
X10284Y20568D01*
X10334Y20558D01*
X10466D01*
Y20384D01*
X11064D01*
X11076Y20382D01*
X12131D01*
X12951Y19562D01*
Y18759D01*
X12953Y18746D01*
Y18256D01*
X13822D01*
Y18889D01*
X13216D01*
Y19230D01*
X13266Y19257D01*
X13278Y19249D01*
X13328Y19239D01*
X14754D01*
Y19026D01*
X15446D01*
Y19717D01*
X14754D01*
Y19504D01*
X13383D01*
X13177Y19711D01*
X12280Y20608D01*
X12237Y20637D01*
X12186Y20647D01*
X11334D01*
Y20997D01*
X10466D01*
Y20823D01*
X10389D01*
X10310Y20902D01*
X10313Y20927D01*
X10489Y21103D01*
X10494Y21106D01*
X10555Y21167D01*
X11498D01*
X11512Y21134D01*
X11565Y21065D01*
X11634Y21012D01*
X11714Y20978D01*
X11800Y20967D01*
X11886Y20978D01*
X11966Y21012D01*
X12035Y21065D01*
X12088Y21134D01*
X12122Y21214D01*
X12133Y21300D01*
X12122Y21386D01*
X12088Y21466D01*
X12035Y21535D01*
X11966Y21588D01*
X11886Y21622D01*
X11800Y21633D01*
X11714Y21622D01*
X11634Y21588D01*
X11565Y21535D01*
X11512Y21466D01*
X11498Y21433D01*
X10500D01*
X10449Y21422D01*
X10406Y21394D01*
X10309Y21297D01*
X10305Y21294D01*
X10160Y21149D01*
X10108Y21152D01*
X10076Y21193D01*
X10081Y21217D01*
X10070Y21275D01*
X10043Y21316D01*
X10070Y21356D01*
X10081Y21414D01*
X10076Y21439D01*
X10114Y21489D01*
X11211D01*
X11258Y21498D01*
X11298Y21525D01*
X11651Y21878D01*
X12900D01*
X12947Y21887D01*
X12987Y21913D01*
X14087Y23013D01*
X14113Y23053D01*
X14122Y23100D01*
Y25149D01*
X14751Y25778D01*
X14976D01*
Y25544D01*
X15824D01*
Y25678D01*
X15978D01*
Y22800D01*
X15987Y22753D01*
X16013Y22713D01*
X16417Y22310D01*
X16423Y22306D01*
X16428Y22257D01*
X16406Y22235D01*
X16378Y22192D01*
X16367Y22141D01*
Y21583D01*
X15816D01*
X15765Y21572D01*
X15722Y21544D01*
X15666Y21488D01*
X15666Y21488D01*
X15586Y21522D01*
X15500Y21533D01*
X15414Y21522D01*
X15334Y21488D01*
X15265Y21435D01*
X15212Y21366D01*
X15178Y21286D01*
X15167Y21200D01*
X15178Y21114D01*
X15212Y21034D01*
X15265Y20965D01*
X15334Y20912D01*
X15414Y20878D01*
X15500Y20867D01*
X15586Y20878D01*
X15666Y20912D01*
X15735Y20965D01*
X15788Y21034D01*
X15822Y21114D01*
X15833Y21200D01*
X15824Y21270D01*
X15871Y21317D01*
X16367D01*
Y20759D01*
X16378Y20708D01*
X16406Y20665D01*
X16465Y20606D01*
X16508Y20578D01*
X16559Y20567D01*
X19400D01*
X19451Y20578D01*
X19494Y20606D01*
X19738Y20851D01*
X19776Y20835D01*
Y20835D01*
X20624D01*
Y21167D01*
X20809D01*
X20860Y21178D01*
X20903Y21206D01*
X20994Y21297D01*
X21022Y21340D01*
X21033Y21391D01*
Y24300D01*
X21022Y24351D01*
X20994Y24394D01*
X20194Y25194D01*
X20151Y25222D01*
X20100Y25233D01*
X19355D01*
X17736Y26852D01*
Y29650D01*
X17750D01*
Y29908D01*
X17850D01*
Y29650D01*
X17874D01*
Y29415D01*
X17884Y29368D01*
X17910Y29328D01*
X18466Y28773D01*
Y28254D01*
X19334D01*
Y28946D01*
X18639D01*
X18119Y29465D01*
Y29670D01*
X18136D01*
Y29867D01*
X18530D01*
Y29884D01*
X19043D01*
X19756Y29171D01*
Y28755D01*
X20644D01*
Y28986D01*
X20647Y28987D01*
X20687Y29013D01*
X20713Y29053D01*
X20722Y29100D01*
X20713Y29147D01*
X20687Y29187D01*
X20647Y29213D01*
X20644Y29214D01*
Y29446D01*
X19827D01*
X19238Y30035D01*
X19258Y30081D01*
X19956D01*
Y29953D01*
X20844D01*
Y30645D01*
X19956D01*
Y30326D01*
X19218D01*
X19197Y30375D01*
X19213Y30400D01*
X19222Y30447D01*
Y31453D01*
X19544D01*
Y32145D01*
X18656D01*
Y31453D01*
X18978D01*
Y30522D01*
X18550D01*
Y30547D01*
X18292D01*
Y30647D01*
X18550D01*
Y30744D01*
X18292D01*
Y30794D01*
X18242D01*
Y30953D01*
X18136D01*
Y31130D01*
X18122D01*
Y31400D01*
X18113Y31447D01*
X18087Y31487D01*
X17922Y31651D01*
Y32693D01*
X17966Y32712D01*
X18035Y32765D01*
X18088Y32834D01*
X18122Y32914D01*
X18133Y33000D01*
X18122Y33086D01*
X18088Y33166D01*
X18035Y33235D01*
X17966Y33288D01*
X17886Y33322D01*
X17800Y33333D01*
D02*
G37*
G36*
X12100Y30679D02*
X12002Y30666D01*
X11911Y30628D01*
X11832Y30568D01*
X11772Y30489D01*
X11734Y30398D01*
X11721Y30300D01*
X11734Y30202D01*
X11772Y30111D01*
X11832Y30032D01*
X11911Y29972D01*
X12002Y29934D01*
X12100Y29921D01*
X12198Y29934D01*
X12289Y29972D01*
X12368Y30032D01*
X12428Y30111D01*
X12466Y30202D01*
X12479Y30300D01*
X12466Y30398D01*
X12428Y30489D01*
X12368Y30568D01*
X12289Y30628D01*
X12198Y30666D01*
X12100Y30679D01*
D02*
G37*
G36*
X3100D02*
X3002Y30666D01*
X2911Y30628D01*
X2832Y30568D01*
X2772Y30489D01*
X2734Y30398D01*
X2721Y30300D01*
X2734Y30202D01*
X2772Y30111D01*
X2832Y30032D01*
X2911Y29972D01*
X3002Y29934D01*
X3100Y29921D01*
X3198Y29934D01*
X3289Y29972D01*
X3368Y30032D01*
X3428Y30111D01*
X3466Y30202D01*
X3479Y30300D01*
X3466Y30398D01*
X3428Y30489D01*
X3368Y30568D01*
X3289Y30628D01*
X3198Y30666D01*
X3100Y30679D01*
D02*
G37*
G36*
X12100Y29679D02*
X12002Y29666D01*
X11911Y29628D01*
X11832Y29568D01*
X11772Y29489D01*
X11734Y29398D01*
X11721Y29300D01*
X11734Y29202D01*
X11772Y29111D01*
X11832Y29032D01*
X11911Y28972D01*
X12002Y28934D01*
X12100Y28921D01*
X12198Y28934D01*
X12289Y28972D01*
X12368Y29032D01*
X12428Y29111D01*
X12466Y29202D01*
X12479Y29300D01*
X12466Y29398D01*
X12428Y29489D01*
X12368Y29568D01*
X12289Y29628D01*
X12198Y29666D01*
X12100Y29679D01*
D02*
G37*
G36*
X3100D02*
X3002Y29666D01*
X2911Y29628D01*
X2832Y29568D01*
X2772Y29489D01*
X2734Y29398D01*
X2721Y29300D01*
X2734Y29202D01*
X2772Y29111D01*
X2832Y29032D01*
X2911Y28972D01*
X3002Y28934D01*
X3100Y28921D01*
X3198Y28934D01*
X3289Y28972D01*
X3368Y29032D01*
X3428Y29111D01*
X3466Y29202D01*
X3479Y29300D01*
X3466Y29398D01*
X3428Y29489D01*
X3368Y29568D01*
X3289Y29628D01*
X3198Y29666D01*
X3100Y29679D01*
D02*
G37*
G36*
X12100Y28679D02*
X12002Y28666D01*
X11911Y28628D01*
X11832Y28568D01*
X11772Y28489D01*
X11734Y28398D01*
X11721Y28300D01*
X11734Y28202D01*
X11772Y28111D01*
X11832Y28032D01*
X11911Y27972D01*
X12002Y27934D01*
X12100Y27921D01*
X12198Y27934D01*
X12289Y27972D01*
X12368Y28032D01*
X12428Y28111D01*
X12466Y28202D01*
X12479Y28300D01*
X12466Y28398D01*
X12428Y28489D01*
X12368Y28568D01*
X12289Y28628D01*
X12198Y28666D01*
X12100Y28679D01*
D02*
G37*
G36*
X3100D02*
X3002Y28666D01*
X2911Y28628D01*
X2832Y28568D01*
X2772Y28489D01*
X2734Y28398D01*
X2721Y28300D01*
X2734Y28202D01*
X2772Y28111D01*
X2832Y28032D01*
X2911Y27972D01*
X3002Y27934D01*
X3100Y27921D01*
X3198Y27934D01*
X3289Y27972D01*
X3368Y28032D01*
X3428Y28111D01*
X3466Y28202D01*
X3479Y28300D01*
X3466Y28398D01*
X3428Y28489D01*
X3368Y28568D01*
X3289Y28628D01*
X3198Y28666D01*
X3100Y28679D01*
D02*
G37*
G36*
X19354Y27863D02*
X18950D01*
Y27548D01*
X19354D01*
Y27863D01*
D02*
G37*
G36*
X18850D02*
X18446D01*
Y27548D01*
X18850D01*
Y27863D01*
D02*
G37*
G36*
X19354Y27448D02*
X18950D01*
Y27132D01*
X19354D01*
Y27448D01*
D02*
G37*
G36*
X18850D02*
X18446D01*
Y27132D01*
X18850D01*
Y27448D01*
D02*
G37*
G36*
X12100Y27679D02*
X12002Y27666D01*
X11911Y27628D01*
X11832Y27568D01*
X11772Y27489D01*
X11734Y27398D01*
X11721Y27300D01*
X11734Y27202D01*
X11772Y27111D01*
X11832Y27032D01*
X11911Y26972D01*
X12002Y26934D01*
X12100Y26921D01*
X12198Y26934D01*
X12289Y26972D01*
X12368Y27032D01*
X12428Y27111D01*
X12466Y27202D01*
X12479Y27300D01*
X12466Y27398D01*
X12428Y27489D01*
X12368Y27568D01*
X12289Y27628D01*
X12198Y27666D01*
X12100Y27679D01*
D02*
G37*
G36*
X20844Y31846D02*
X19956D01*
Y31154D01*
X20844D01*
Y31342D01*
X21435D01*
X21742Y31035D01*
Y25547D01*
X21696Y25528D01*
X21618Y25605D01*
X21622Y25614D01*
X21633Y25700D01*
X21622Y25786D01*
X21588Y25866D01*
X21535Y25935D01*
X21466Y25988D01*
X21386Y26022D01*
X21300Y26033D01*
X21214Y26022D01*
X21134Y25988D01*
X21065Y25935D01*
X21012Y25866D01*
X20978Y25786D01*
X20967Y25700D01*
X20978Y25614D01*
X21012Y25534D01*
X21065Y25465D01*
X21134Y25412D01*
X21214Y25378D01*
X21300Y25367D01*
X21386Y25378D01*
X21395Y25382D01*
X21742Y25035D01*
Y20665D01*
X21244Y20167D01*
X20624D01*
Y20365D01*
X19776D01*
Y19654D01*
X20042D01*
Y17165D01*
X17838Y14962D01*
X17804Y14910D01*
X17792Y14850D01*
Y12348D01*
X17516D01*
Y12308D01*
X17254D01*
Y12417D01*
X16346D01*
Y12309D01*
X15854D01*
Y12367D01*
X14946D01*
Y12298D01*
X14940Y12297D01*
X14888Y12263D01*
X14854Y12212D01*
X14854Y12210D01*
X14504D01*
Y12366D01*
X13596D01*
Y12210D01*
X13334D01*
Y12399D01*
X12466D01*
Y12210D01*
X12234D01*
Y12398D01*
X11366D01*
Y12236D01*
X11134D01*
Y12399D01*
X10266D01*
Y12358D01*
X10004D01*
Y12467D01*
X9833D01*
Y13445D01*
X9994Y13606D01*
X10022Y13649D01*
X10033Y13700D01*
Y14220D01*
X10180D01*
Y14277D01*
X10472D01*
X10523Y14287D01*
X10566Y14316D01*
X10842Y14591D01*
X10870Y14634D01*
X10881Y14685D01*
Y16772D01*
X10870Y16822D01*
X10842Y16865D01*
X10369Y17338D01*
X10326Y17367D01*
X10276Y17377D01*
X9464D01*
X9033Y17808D01*
Y18651D01*
X9077Y18670D01*
X9113Y18642D01*
Y17966D01*
X9286D01*
Y17836D01*
X9296Y17786D01*
X9325Y17742D01*
X9534Y17534D01*
X9577Y17505D01*
X9628Y17495D01*
X11378D01*
Y17311D01*
X11680D01*
Y16587D01*
X11690Y16537D01*
X11719Y16494D01*
X12478Y15735D01*
X12521Y15706D01*
X12572Y15696D01*
X14781D01*
X14798Y15654D01*
X14853Y15582D01*
X14926Y15526D01*
X15010Y15491D01*
X15100Y15480D01*
X15190Y15491D01*
X15274Y15526D01*
X15347Y15582D01*
X15402Y15654D01*
X15437Y15738D01*
X15449Y15828D01*
X15437Y15919D01*
X15402Y16003D01*
X15347Y16075D01*
X15274Y16130D01*
X15190Y16165D01*
X15100Y16177D01*
X15010Y16165D01*
X14926Y16130D01*
X14853Y16075D01*
X14798Y16003D01*
X14781Y15961D01*
X12627D01*
X11945Y16642D01*
Y17311D01*
X12247D01*
Y17944D01*
X11378D01*
Y17760D01*
X9682D01*
X9551Y17891D01*
Y17966D01*
X9725D01*
Y18834D01*
X9300D01*
X9009Y19125D01*
Y19701D01*
X9017Y19712D01*
X9028Y19770D01*
Y20263D01*
X9017Y20321D01*
X8984Y20370D01*
X8934Y20403D01*
X8876Y20414D01*
X8818Y20403D01*
X8796Y20388D01*
X8745Y20422D01*
X8730Y20425D01*
Y20288D01*
X8725Y20263D01*
Y20017D01*
X8635D01*
Y20263D01*
X8630Y20288D01*
Y20425D01*
X8614Y20422D01*
X8563Y20388D01*
X8541Y20403D01*
X8483Y20414D01*
X8425Y20403D01*
X8384Y20376D01*
X8344Y20403D01*
X8286Y20414D01*
X8228Y20403D01*
X8187Y20376D01*
X8147Y20403D01*
X8089Y20414D01*
X8031Y20403D01*
X7991Y20376D01*
X7950Y20403D01*
X7892Y20414D01*
X7834Y20403D01*
X7794Y20376D01*
X7753Y20403D01*
X7695Y20414D01*
X7637Y20403D01*
X7597Y20376D01*
X7557Y20403D01*
X7498Y20414D01*
X7440Y20403D01*
X7400Y20376D01*
X7360Y20403D01*
X7302Y20414D01*
X7243Y20403D01*
X7203Y20376D01*
X7163Y20403D01*
X7105Y20414D01*
X7047Y20403D01*
X7006Y20376D01*
X6966Y20403D01*
X6908Y20414D01*
X6850Y20403D01*
X6809Y20376D01*
X6769Y20403D01*
X6711Y20414D01*
X6653Y20403D01*
X6613Y20376D01*
X6572Y20403D01*
X6514Y20414D01*
X6456Y20403D01*
X6416Y20376D01*
X6375Y20403D01*
X6317Y20414D01*
X6259Y20403D01*
X6219Y20376D01*
X6179Y20403D01*
X6120Y20414D01*
X6062Y20403D01*
X6022Y20376D01*
X5982Y20403D01*
X5924Y20414D01*
X5866Y20403D01*
X5816Y20370D01*
X5783Y20321D01*
X5772Y20263D01*
Y19770D01*
X5783Y19712D01*
X5816Y19663D01*
X5866Y19630D01*
X5924Y19619D01*
X5982Y19630D01*
X6022Y19657D01*
X6062Y19630D01*
X6120Y19619D01*
X6179Y19630D01*
X6219Y19657D01*
X6259Y19630D01*
X6317Y19619D01*
X6375Y19630D01*
X6416Y19657D01*
X6456Y19630D01*
X6514Y19619D01*
X6539Y19624D01*
X6589Y19586D01*
Y19476D01*
X4145Y17033D01*
X2746D01*
Y17197D01*
X2533D01*
Y21167D01*
X4145D01*
X4206Y21106D01*
X4249Y21078D01*
X4300Y21067D01*
X4668D01*
X4700Y21029D01*
X4698Y21020D01*
X4711Y20955D01*
X4733Y20922D01*
X4711Y20890D01*
X4708Y20874D01*
X5117D01*
X5525D01*
X5522Y20890D01*
X5500Y20922D01*
X5522Y20955D01*
X5525Y20970D01*
X5117D01*
Y21065D01*
X5363D01*
X5388Y21070D01*
X5525D01*
X5522Y21086D01*
X5488Y21137D01*
X5503Y21159D01*
X5514Y21217D01*
X5503Y21275D01*
X5476Y21316D01*
X5503Y21356D01*
X5514Y21414D01*
X5503Y21472D01*
X5476Y21513D01*
X5503Y21553D01*
X5514Y21611D01*
X5503Y21669D01*
X5476Y21709D01*
X5503Y21750D01*
X5514Y21808D01*
X5503Y21866D01*
X5476Y21906D01*
X5503Y21947D01*
X5514Y22005D01*
X5503Y22063D01*
X5476Y22103D01*
X5503Y22143D01*
X5514Y22202D01*
X5503Y22260D01*
X5476Y22300D01*
X5503Y22340D01*
X5514Y22398D01*
X5503Y22457D01*
X5476Y22497D01*
X5503Y22537D01*
X5514Y22595D01*
X5503Y22653D01*
X5476Y22694D01*
X5503Y22734D01*
X5514Y22792D01*
X5503Y22850D01*
X5476Y22891D01*
X5503Y22931D01*
X5514Y22989D01*
X5503Y23047D01*
X5488Y23069D01*
X5522Y23120D01*
X5525Y23136D01*
X5388D01*
X5363Y23141D01*
X5117D01*
X4870D01*
X4845Y23136D01*
X4708D01*
X4711Y23120D01*
X4745Y23069D01*
X4730Y23047D01*
X4719Y22989D01*
X4730Y22931D01*
X4757Y22891D01*
X4730Y22850D01*
X4719Y22792D01*
X4730Y22734D01*
X4757Y22694D01*
X4730Y22653D01*
X4719Y22595D01*
X4730Y22537D01*
X4757Y22497D01*
X4730Y22457D01*
X4719Y22398D01*
X4730Y22340D01*
X4757Y22300D01*
X4730Y22260D01*
X4719Y22202D01*
X4730Y22143D01*
X4757Y22103D01*
X4730Y22063D01*
X4719Y22005D01*
X4730Y21947D01*
X4757Y21906D01*
X4730Y21866D01*
X4719Y21808D01*
X4730Y21750D01*
X4757Y21709D01*
X4730Y21669D01*
X4719Y21611D01*
X4721Y21597D01*
X4680Y21547D01*
X4414D01*
X4363Y21537D01*
X4320Y21508D01*
X4238Y21425D01*
X4200Y21433D01*
X2533D01*
Y23260D01*
X4662D01*
X4682Y23236D01*
X4845D01*
X4870Y23231D01*
X5117D01*
X5363D01*
X5388Y23236D01*
X5525D01*
X5522Y23252D01*
X5488Y23302D01*
X5503Y23325D01*
X5514Y23383D01*
X5503Y23441D01*
X5476Y23481D01*
X5503Y23521D01*
X5514Y23580D01*
X5503Y23638D01*
X5476Y23678D01*
X5503Y23718D01*
X5514Y23776D01*
X5503Y23834D01*
X5470Y23884D01*
X5421Y23917D01*
X5363Y23928D01*
X4870D01*
X4812Y23917D01*
X4763Y23884D01*
X4730Y23834D01*
X4719Y23776D01*
X4730Y23718D01*
X4757Y23678D01*
X4730Y23638D01*
X4719Y23580D01*
X4724Y23555D01*
X4686Y23505D01*
X2533D01*
Y23900D01*
X2522Y23951D01*
X2494Y23994D01*
X1433Y25055D01*
Y26945D01*
X1655Y27167D01*
X2749D01*
X2772Y27111D01*
X2832Y27032D01*
X2911Y26972D01*
X3002Y26934D01*
X3100Y26921D01*
X3198Y26934D01*
X3289Y26972D01*
X3368Y27032D01*
X3428Y27111D01*
X3466Y27202D01*
X3479Y27300D01*
X3466Y27398D01*
X3428Y27489D01*
X3368Y27568D01*
X3289Y27628D01*
X3198Y27666D01*
X3100Y27679D01*
X3002Y27666D01*
X2911Y27628D01*
X2832Y27568D01*
X2772Y27489D01*
X2749Y27433D01*
X1600D01*
X1549Y27422D01*
X1506Y27394D01*
X1206Y27094D01*
X1178Y27051D01*
X1167Y27000D01*
Y25000D01*
X1178Y24949D01*
X1206Y24906D01*
X2267Y23845D01*
Y23400D01*
Y21241D01*
Y17197D01*
X2054D01*
Y16603D01*
X2513D01*
X2522Y16591D01*
X2767Y16345D01*
Y15802D01*
X2734Y15788D01*
X2665Y15735D01*
X2612Y15666D01*
X2578Y15586D01*
X2567Y15500D01*
X2578Y15414D01*
X2612Y15334D01*
X2665Y15265D01*
X2734Y15212D01*
X2814Y15178D01*
X2900Y15167D01*
X2986Y15178D01*
X3066Y15212D01*
X3135Y15265D01*
X3188Y15334D01*
X3222Y15414D01*
X3233Y15500D01*
X3222Y15586D01*
X3188Y15666D01*
X3135Y15735D01*
X3066Y15788D01*
X3033Y15802D01*
Y16400D01*
X3022Y16451D01*
X2994Y16494D01*
X2770Y16717D01*
X2791Y16767D01*
X4200D01*
X4251Y16778D01*
X4294Y16806D01*
X6735Y19248D01*
X6782Y19223D01*
X6775Y19192D01*
X6785Y19141D01*
X6814Y19098D01*
X8567Y17345D01*
Y15700D01*
X8578Y15649D01*
X8606Y15606D01*
X9131Y15082D01*
X9127Y15073D01*
X9118Y15000D01*
X9127Y14927D01*
X9155Y14859D01*
X9200Y14800D01*
X9225Y14782D01*
Y14718D01*
X9200Y14700D01*
X9155Y14641D01*
X9127Y14573D01*
X9118Y14500D01*
X9127Y14427D01*
X9155Y14359D01*
X9200Y14300D01*
X9259Y14255D01*
X9327Y14227D01*
X9400Y14218D01*
X9473Y14227D01*
X9541Y14255D01*
X9570Y14278D01*
X9620Y14253D01*
Y14220D01*
X9767D01*
Y13755D01*
X9606Y13594D01*
X9578Y13551D01*
X9567Y13500D01*
Y12467D01*
X9096D01*
Y12233D01*
X8500D01*
X8449Y12222D01*
X8406Y12194D01*
X7870Y11658D01*
X6800D01*
X6749Y11648D01*
X6706Y11619D01*
X6678Y11576D01*
X6667Y11525D01*
Y11078D01*
X6613D01*
Y9973D01*
X7187D01*
Y11078D01*
X6933D01*
Y11393D01*
X7925D01*
X7976Y11403D01*
X8019Y11431D01*
X8555Y11967D01*
X9096D01*
Y11933D01*
X10004D01*
Y12042D01*
X10266D01*
Y11708D01*
X11134D01*
Y11894D01*
X11366D01*
Y11707D01*
X12234D01*
Y11894D01*
X12466D01*
Y11708D01*
X13334D01*
Y11894D01*
X13596D01*
Y11832D01*
X14504D01*
Y11894D01*
X14901D01*
X14907Y11896D01*
X14946Y11864D01*
Y11833D01*
X15854D01*
Y11993D01*
X16346D01*
Y11883D01*
X17254D01*
Y11992D01*
X17516D01*
Y11657D01*
X18384D01*
Y12348D01*
X18108D01*
Y14785D01*
X20312Y16988D01*
X20346Y17040D01*
X20358Y17100D01*
Y19654D01*
X20624D01*
Y19851D01*
X21309D01*
X21370Y19863D01*
X21421Y19898D01*
X22012Y20488D01*
X22046Y20540D01*
X22058Y20600D01*
Y25100D01*
Y31100D01*
X22046Y31160D01*
X22012Y31212D01*
X21612Y31612D01*
X21560Y31646D01*
X21500Y31658D01*
X20844D01*
Y31846D01*
D02*
G37*
G36*
X3150Y26692D02*
Y26350D01*
X3492D01*
X3485Y26403D01*
X3445Y26499D01*
X3382Y26582D01*
X3299Y26645D01*
X3203Y26685D01*
X3150Y26692D01*
D02*
G37*
G36*
X3050D02*
X2997Y26685D01*
X2901Y26645D01*
X2818Y26582D01*
X2755Y26499D01*
X2715Y26403D01*
X2708Y26350D01*
X3050D01*
Y26692D01*
D02*
G37*
G36*
X20644Y28245D02*
X19756D01*
Y27554D01*
X20042D01*
Y26592D01*
X20034Y26589D01*
X19965Y26536D01*
X19912Y26467D01*
X19878Y26387D01*
X19867Y26300D01*
X19878Y26214D01*
X19912Y26134D01*
X19965Y26065D01*
X20034Y26012D01*
X20114Y25979D01*
X20200Y25968D01*
X20286Y25979D01*
X20366Y26012D01*
X20435Y26065D01*
X20488Y26134D01*
X20522Y26214D01*
X20533Y26300D01*
X20522Y26387D01*
X20488Y26467D01*
X20435Y26536D01*
X20366Y26589D01*
X20358Y26592D01*
Y27554D01*
X20644D01*
Y28245D01*
D02*
G37*
G36*
X12100Y26679D02*
X12002Y26666D01*
X11911Y26628D01*
X11832Y26568D01*
X11772Y26489D01*
X11734Y26398D01*
X11721Y26300D01*
X11734Y26202D01*
X11772Y26111D01*
X11832Y26032D01*
X11911Y25972D01*
X12002Y25934D01*
X12100Y25921D01*
X12198Y25934D01*
X12289Y25972D01*
X12368Y26032D01*
X12428Y26111D01*
X12466Y26202D01*
X12479Y26300D01*
X12466Y26398D01*
X12428Y26489D01*
X12368Y26568D01*
X12289Y26628D01*
X12198Y26666D01*
X12100Y26679D01*
D02*
G37*
G36*
X3492Y26250D02*
X3150D01*
Y25908D01*
X3203Y25915D01*
X3299Y25955D01*
X3382Y26018D01*
X3445Y26101D01*
X3485Y26197D01*
X3492Y26250D01*
D02*
G37*
G36*
X3050D02*
X2708D01*
X2715Y26197D01*
X2755Y26101D01*
X2818Y26018D01*
X2901Y25955D01*
X2997Y25915D01*
X3050Y25908D01*
Y26250D01*
D02*
G37*
G36*
X11800Y24133D02*
X11714Y24122D01*
X11634Y24088D01*
X11565Y24035D01*
X11512Y23966D01*
X11488Y23910D01*
X9998D01*
X9988Y23917D01*
X9930Y23928D01*
X9437D01*
X9379Y23917D01*
X9330Y23884D01*
X9297Y23834D01*
X9286Y23776D01*
X9297Y23718D01*
X9312Y23696D01*
X9278Y23645D01*
X9275Y23630D01*
X9412D01*
X9437Y23625D01*
X9683D01*
X9930D01*
X9955Y23630D01*
X10105D01*
X10131Y23665D01*
X10468D01*
Y22866D01*
X10424Y22847D01*
X10355Y22794D01*
X10302Y22725D01*
X10269Y22645D01*
X10258Y22559D01*
X10269Y22473D01*
X10302Y22393D01*
X10355Y22324D01*
X10424Y22271D01*
X10504Y22238D01*
X10591Y22226D01*
X10677Y22238D01*
X10757Y22271D01*
X10826Y22324D01*
X10879Y22393D01*
X10912Y22473D01*
X10923Y22559D01*
X10912Y22645D01*
X10879Y22725D01*
X10826Y22794D01*
X10757Y22847D01*
X10713Y22866D01*
Y23665D01*
X11499D01*
X11512Y23634D01*
X11565Y23565D01*
X11634Y23512D01*
X11714Y23478D01*
X11800Y23467D01*
X11886Y23478D01*
X11966Y23512D01*
X12035Y23565D01*
X12088Y23634D01*
X12122Y23714D01*
X12133Y23800D01*
X12122Y23886D01*
X12088Y23966D01*
X12035Y24035D01*
X11966Y24088D01*
X11886Y24122D01*
X11800Y24133D01*
D02*
G37*
G36*
X15824Y25074D02*
X14976D01*
Y24534D01*
X14972Y24518D01*
X14976Y24503D01*
Y24363D01*
X15115D01*
X15131Y24360D01*
X15146Y24363D01*
X15342D01*
Y23665D01*
X15195Y23518D01*
X15186Y23522D01*
X15100Y23533D01*
X15014Y23522D01*
X14934Y23488D01*
X14865Y23435D01*
X14812Y23366D01*
X14778Y23286D01*
X14767Y23200D01*
X14778Y23114D01*
X14812Y23034D01*
X14865Y22965D01*
X14934Y22912D01*
X15014Y22878D01*
X15100Y22867D01*
X15186Y22878D01*
X15266Y22912D01*
X15335Y22965D01*
X15388Y23034D01*
X15422Y23114D01*
X15433Y23200D01*
X15422Y23286D01*
X15418Y23295D01*
X15612Y23488D01*
X15646Y23540D01*
X15658Y23600D01*
Y24363D01*
X15824D01*
Y25074D01*
D02*
G37*
G36*
X5525Y20774D02*
X5167D01*
Y20651D01*
X5363D01*
X5429Y20665D01*
X5484Y20702D01*
X5522Y20758D01*
X5525Y20774D01*
D02*
G37*
G36*
X5067D02*
X4708D01*
X4711Y20758D01*
X4749Y20702D01*
X4805Y20665D01*
X4870Y20651D01*
X5067D01*
Y20774D01*
D02*
G37*
G36*
X11354Y19836D02*
X10950D01*
Y19559D01*
X11354D01*
Y19836D01*
D02*
G37*
G36*
X10850D02*
X10446D01*
Y19559D01*
X10850D01*
Y19836D01*
D02*
G37*
G36*
X11354Y19459D02*
X10950D01*
Y19183D01*
X11354D01*
Y19459D01*
D02*
G37*
G36*
X10850D02*
X10446D01*
Y19183D01*
X10850D01*
Y19459D01*
D02*
G37*
G36*
X12267Y18909D02*
X11863D01*
Y18622D01*
X12267D01*
Y18909D01*
D02*
G37*
G36*
X11763D02*
X11358D01*
Y18622D01*
X11763D01*
Y18909D01*
D02*
G37*
G36*
X10926Y18854D02*
X10650D01*
Y18450D01*
X10926D01*
Y18854D01*
D02*
G37*
G36*
X10550D02*
X10274D01*
Y18450D01*
X10550D01*
Y18854D01*
D02*
G37*
G36*
X12267Y18522D02*
X11863D01*
Y18236D01*
X12267D01*
Y18522D01*
D02*
G37*
G36*
X11763D02*
X11358D01*
Y18236D01*
X11763D01*
Y18522D01*
D02*
G37*
G36*
X10926Y18350D02*
X10650D01*
Y17946D01*
X10926D01*
Y18350D01*
D02*
G37*
G36*
X10550D02*
X10274D01*
Y17946D01*
X10550D01*
Y18350D01*
D02*
G37*
G36*
X13842Y17964D02*
X13437D01*
Y17678D01*
X13842D01*
Y17964D01*
D02*
G37*
G36*
X13337D02*
X12933D01*
Y17678D01*
X13337D01*
Y17964D01*
D02*
G37*
G36*
X13842Y17578D02*
X13437D01*
Y17291D01*
X13842D01*
Y17578D01*
D02*
G37*
G36*
X13337D02*
X12933D01*
Y17291D01*
X13337D01*
Y17578D01*
D02*
G37*
G36*
X8096Y16452D02*
X5950D01*
Y14650D01*
X8096D01*
Y16452D01*
D02*
G37*
G36*
X5850D02*
X3704D01*
Y14650D01*
X5850D01*
Y16452D01*
D02*
G37*
G36*
X1624Y17197D02*
X932D01*
Y16603D01*
X967D01*
Y14875D01*
X725D01*
Y14125D01*
X1475D01*
Y14875D01*
X1233D01*
Y16603D01*
X1624D01*
Y17197D01*
D02*
G37*
G36*
X1150Y13892D02*
Y13550D01*
X1492D01*
X1485Y13603D01*
X1445Y13699D01*
X1382Y13782D01*
X1299Y13845D01*
X1203Y13885D01*
X1150Y13892D01*
D02*
G37*
G36*
X1050D02*
X997Y13885D01*
X901Y13845D01*
X818Y13782D01*
X755Y13699D01*
X715Y13603D01*
X708Y13550D01*
X1050D01*
Y13892D01*
D02*
G37*
G36*
X1492Y13450D02*
X1150D01*
Y13108D01*
X1203Y13115D01*
X1299Y13155D01*
X1382Y13218D01*
X1445Y13301D01*
X1485Y13397D01*
X1492Y13450D01*
D02*
G37*
G36*
X1050D02*
X708D01*
X715Y13397D01*
X755Y13301D01*
X818Y13218D01*
X901Y13155D01*
X997Y13115D01*
X1050Y13108D01*
Y13450D01*
D02*
G37*
G36*
X8096Y14550D02*
X5950D01*
Y12748D01*
X8096D01*
Y14550D01*
D02*
G37*
G36*
X5850D02*
X3704D01*
Y12748D01*
X5850D01*
Y14550D01*
D02*
G37*
G36*
X13354Y11317D02*
X12950D01*
Y11001D01*
X13354D01*
Y11317D01*
D02*
G37*
G36*
X11154D02*
X10750D01*
Y11001D01*
X11154D01*
Y11317D01*
D02*
G37*
G36*
X10650D02*
X10246D01*
Y11001D01*
X10650D01*
Y11317D01*
D02*
G37*
G36*
X12850D02*
X12446D01*
Y11001D01*
X12850D01*
Y11317D01*
D02*
G37*
G36*
X12254Y11316D02*
X11850D01*
Y11000D01*
X12254D01*
Y11316D01*
D02*
G37*
G36*
X11750D02*
X11346D01*
Y11000D01*
X11750D01*
Y11316D01*
D02*
G37*
G36*
X18404Y11266D02*
X18000D01*
Y10950D01*
X18404D01*
Y11266D01*
D02*
G37*
G36*
X17900D02*
X17496D01*
Y10950D01*
X17900D01*
Y11266D01*
D02*
G37*
G36*
X10024Y11089D02*
X9600D01*
Y10852D01*
X10024D01*
Y11089D01*
D02*
G37*
G36*
X9500D02*
X9076D01*
Y10852D01*
X9500D01*
Y11089D01*
D02*
G37*
G36*
X17274Y11039D02*
X16850D01*
Y10802D01*
X17274D01*
Y11039D01*
D02*
G37*
G36*
X16750D02*
X16326D01*
Y10802D01*
X16750D01*
Y11039D01*
D02*
G37*
G36*
X15874Y10989D02*
X15450D01*
Y10752D01*
X15874D01*
Y10989D01*
D02*
G37*
G36*
X15350D02*
X14926D01*
Y10752D01*
X15350D01*
Y10989D01*
D02*
G37*
G36*
X14524Y10988D02*
X14100D01*
Y10751D01*
X14524D01*
Y10988D01*
D02*
G37*
G36*
X14000D02*
X13576D01*
Y10751D01*
X14000D01*
Y10988D01*
D02*
G37*
G36*
X5187Y11078D02*
X4613D01*
Y10699D01*
X2397D01*
Y10734D01*
X1705D01*
Y9866D01*
X1927D01*
Y9172D01*
X1277Y8523D01*
X1240Y8466D01*
X1227Y8400D01*
Y7896D01*
X1103D01*
Y7204D01*
X1697D01*
Y7896D01*
X1573D01*
Y8328D01*
X2223Y8977D01*
X2223Y8977D01*
X2260Y9034D01*
X2273Y9100D01*
Y9866D01*
X2397D01*
Y10352D01*
X4613D01*
Y9973D01*
X5187D01*
Y11078D01*
D02*
G37*
G36*
X13354Y10901D02*
X12950D01*
Y10585D01*
X13354D01*
Y10901D01*
D02*
G37*
G36*
X12850D02*
X12446D01*
Y10585D01*
X12850D01*
Y10901D01*
D02*
G37*
G36*
X11154D02*
X10750D01*
Y10585D01*
X11154D01*
Y10901D01*
D02*
G37*
G36*
X10650D02*
X10246D01*
Y10585D01*
X10650D01*
Y10901D01*
D02*
G37*
G36*
X12254Y10900D02*
X11850D01*
Y10584D01*
X12254D01*
Y10900D01*
D02*
G37*
G36*
X11750D02*
X11346D01*
Y10584D01*
X11750D01*
Y10900D01*
D02*
G37*
G36*
X18404Y10850D02*
X18000D01*
Y10534D01*
X18404D01*
Y10850D01*
D02*
G37*
G36*
X17900D02*
X17496D01*
Y10534D01*
X17900D01*
Y10850D01*
D02*
G37*
G36*
X10024Y10752D02*
X9600D01*
Y10515D01*
X10024D01*
Y10752D01*
D02*
G37*
G36*
X9500D02*
X9076D01*
Y10515D01*
X9500D01*
Y10752D01*
D02*
G37*
G36*
X17274Y10702D02*
X16850D01*
Y10465D01*
X17274D01*
Y10702D01*
D02*
G37*
G36*
X16750D02*
X16326D01*
Y10465D01*
X16750D01*
Y10702D01*
D02*
G37*
G36*
X15874Y10652D02*
X15450D01*
Y10415D01*
X15874D01*
Y10652D01*
D02*
G37*
G36*
X15350D02*
X14926D01*
Y10415D01*
X15350D01*
Y10652D01*
D02*
G37*
G36*
X14524Y10651D02*
X14100D01*
Y10414D01*
X14524D01*
Y10651D01*
D02*
G37*
G36*
X14000D02*
X13576D01*
Y10414D01*
X14000D01*
Y10651D01*
D02*
G37*
G36*
X1315Y10754D02*
X999D01*
Y10350D01*
X1315D01*
Y10754D01*
D02*
G37*
G36*
X899D02*
X583D01*
Y10350D01*
X899D01*
Y10754D01*
D02*
G37*
G36*
X1315Y10250D02*
X999D01*
Y9846D01*
X1315D01*
Y10250D01*
D02*
G37*
G36*
X899D02*
X583D01*
Y9846D01*
X899D01*
Y10250D01*
D02*
G37*
G36*
X16280Y6191D02*
X15610D01*
Y5200D01*
X16280D01*
Y6191D01*
D02*
G37*
G36*
X15510D02*
X14840D01*
Y5200D01*
X15510D01*
Y6191D01*
D02*
G37*
G36*
X1697Y6774D02*
X1103D01*
Y6082D01*
X1227D01*
Y5500D01*
X1240Y5434D01*
X1277Y5377D01*
X1627Y5027D01*
X1684Y4990D01*
X1750Y4977D01*
X2640D01*
Y4129D01*
X4040D01*
Y6171D01*
X2640D01*
Y5323D01*
X1822D01*
X1573Y5572D01*
Y6082D01*
X1697D01*
Y6774D01*
D02*
G37*
G36*
X16280Y5100D02*
X15610D01*
Y4109D01*
X16280D01*
Y5100D01*
D02*
G37*
G36*
X15510D02*
X14840D01*
Y4109D01*
X15510D01*
Y5100D01*
D02*
G37*
G36*
X21260Y2053D02*
X21090Y2036D01*
X20926Y1986D01*
X20776Y1906D01*
X20644Y1797D01*
X20535Y1665D01*
X20455Y1515D01*
X20405Y1351D01*
X20388Y1181D01*
X20405Y1011D01*
X20455Y848D01*
X20535Y697D01*
X20644Y565D01*
X20776Y456D01*
X20926Y376D01*
X21090Y326D01*
X21260Y310D01*
X21430Y326D01*
X21593Y376D01*
X21744Y456D01*
X21876Y565D01*
X21985Y697D01*
X22065Y848D01*
X22115Y1011D01*
X22131Y1181D01*
X22115Y1351D01*
X22065Y1515D01*
X21985Y1665D01*
X21876Y1797D01*
X21744Y1906D01*
X21593Y1986D01*
X21430Y2036D01*
X21260Y2053D01*
D02*
G37*
G36*
X1181D02*
X1011Y2036D01*
X848Y1986D01*
X697Y1906D01*
X565Y1797D01*
X456Y1665D01*
X376Y1515D01*
X326Y1351D01*
X310Y1181D01*
X326Y1011D01*
X376Y848D01*
X456Y697D01*
X565Y565D01*
X697Y456D01*
X848Y376D01*
X1011Y326D01*
X1181Y310D01*
X1351Y326D01*
X1515Y376D01*
X1665Y456D01*
X1797Y565D01*
X1906Y697D01*
X1986Y848D01*
X2036Y1011D01*
X2053Y1181D01*
X2036Y1351D01*
X1986Y1515D01*
X1906Y1665D01*
X1797Y1797D01*
X1665Y1906D01*
X1515Y1986D01*
X1351Y2036D01*
X1181Y2053D01*
D02*
G37*
%LPD*%
G36*
X17565Y32765D02*
X17634Y32712D01*
X17678Y32693D01*
Y31600D01*
X17687Y31553D01*
X17713Y31513D01*
X17878Y31349D01*
Y31130D01*
X17762D01*
Y31150D01*
X17653D01*
Y30892D01*
X17553D01*
Y31150D01*
X17444D01*
Y30933D01*
X17070D01*
Y30916D01*
X16904D01*
X16822Y30998D01*
Y32799D01*
X16851Y32828D01*
X17516D01*
X17565Y32765D01*
D02*
G37*
G36*
X17730Y24191D02*
Y22831D01*
X17723D01*
Y22770D01*
X17715Y22723D01*
X17418D01*
Y22716D01*
X17157D01*
X17022Y22851D01*
Y23593D01*
X17066Y23612D01*
X17135Y23665D01*
X17188Y23734D01*
X17222Y23814D01*
X17226Y23848D01*
X17270D01*
X17317Y23857D01*
X17357Y23883D01*
X17683Y24210D01*
X17730Y24191D01*
D02*
G37*
G36*
X20178Y24049D02*
Y22122D01*
X19800D01*
X19753Y22113D01*
X19713Y22087D01*
X18849Y21222D01*
X17122D01*
Y21881D01*
X17398D01*
Y21856D01*
X17567D01*
Y21806D01*
X17617D01*
Y21657D01*
X17723D01*
Y21569D01*
X18096D01*
Y21549D01*
X18196D01*
Y21718D01*
Y21887D01*
X18096D01*
Y21867D01*
X17735D01*
Y21956D01*
X17715D01*
Y22071D01*
Y22486D01*
X17723Y22533D01*
X17900D01*
Y22513D01*
X17999D01*
Y22682D01*
Y22851D01*
X17974D01*
Y24378D01*
X19849D01*
X20178Y24049D01*
D02*
G37*
G36*
X17050Y30056D02*
X17308D01*
Y30006D01*
X17358D01*
Y29847D01*
X17464D01*
Y29670D01*
X17471D01*
Y26797D01*
X17481Y26746D01*
X17509Y26703D01*
X19206Y25006D01*
X19249Y24978D01*
X19300Y24967D01*
X20045D01*
X20767Y24245D01*
Y21445D01*
X20755Y21433D01*
X20624D01*
Y21546D01*
X19776D01*
Y21263D01*
X19345Y20833D01*
X16633D01*
Y21450D01*
Y22078D01*
X16882D01*
X16903Y22028D01*
X16887Y22003D01*
X16878Y21956D01*
Y21147D01*
X16887Y21100D01*
X16913Y21060D01*
X16960Y21013D01*
X17000Y20987D01*
X17047Y20978D01*
X18900D01*
X18947Y20987D01*
X18987Y21013D01*
X19851Y21878D01*
X20253D01*
X20300Y21887D01*
X20340Y21913D01*
X20387Y21960D01*
X20413Y22000D01*
X20422Y22047D01*
Y24100D01*
X20413Y24147D01*
X20387Y24187D01*
X19987Y24587D01*
X19947Y24613D01*
X19900Y24622D01*
X17800D01*
X17753Y24613D01*
X17713Y24587D01*
X17219Y24092D01*
X17168D01*
X17135Y24135D01*
X17066Y24188D01*
X16986Y24222D01*
X16900Y24233D01*
X16814Y24222D01*
X16734Y24188D01*
X16665Y24135D01*
X16612Y24066D01*
X16578Y23986D01*
X16567Y23900D01*
X16578Y23814D01*
X16612Y23734D01*
X16665Y23665D01*
X16734Y23612D01*
X16778Y23593D01*
Y22800D01*
X16787Y22753D01*
X16813Y22713D01*
X16962Y22565D01*
X16942Y22519D01*
X16554D01*
X16222Y22851D01*
Y25753D01*
X16213Y25800D01*
X16187Y25840D01*
X16140Y25887D01*
X16100Y25913D01*
X16053Y25922D01*
X15824D01*
Y26113D01*
X15827Y26126D01*
Y26140D01*
X15894Y26206D01*
X15922Y26249D01*
X15933Y26300D01*
X15933Y26300D01*
Y29245D01*
X16497Y29809D01*
X16526Y29852D01*
X16536Y29903D01*
Y30071D01*
X17050D01*
Y30056D01*
D02*
G37*
%LPC*%
G36*
X17300Y32295D02*
Y32100D01*
X17495D01*
X17486Y32148D01*
X17430Y32230D01*
X17348Y32285D01*
X17300Y32295D01*
D02*
G37*
G36*
X17200D02*
X17152Y32285D01*
X17070Y32230D01*
X17014Y32148D01*
X17005Y32100D01*
X17200D01*
Y32295D01*
D02*
G37*
G36*
X17495Y32000D02*
X17300D01*
Y31805D01*
X17348Y31814D01*
X17430Y31870D01*
X17486Y31952D01*
X17495Y32000D01*
D02*
G37*
G36*
X17200D02*
X17005D01*
X17014Y31952D01*
X17070Y31870D01*
X17152Y31814D01*
X17200Y31805D01*
Y32000D01*
D02*
G37*
G36*
X17450Y23595D02*
Y23400D01*
X17645D01*
X17636Y23448D01*
X17580Y23530D01*
X17498Y23586D01*
X17450Y23595D01*
D02*
G37*
G36*
X17350D02*
X17302Y23586D01*
X17220Y23530D01*
X17164Y23448D01*
X17155Y23400D01*
X17350D01*
Y23595D01*
D02*
G37*
G36*
X17645Y23300D02*
X17450D01*
Y23105D01*
X17498Y23115D01*
X17580Y23170D01*
X17636Y23252D01*
X17645Y23300D01*
D02*
G37*
G36*
X17350D02*
X17155D01*
X17164Y23252D01*
X17220Y23170D01*
X17302Y23115D01*
X17350Y23105D01*
Y23300D01*
D02*
G37*
G36*
X19887Y24035D02*
X19650D01*
Y23650D01*
X19887D01*
Y24035D01*
D02*
G37*
G36*
X19550D02*
X19313D01*
Y23650D01*
X19550D01*
Y24035D01*
D02*
G37*
G36*
X19887Y23550D02*
X19650D01*
Y23165D01*
X19887D01*
Y23550D01*
D02*
G37*
G36*
X19550D02*
X19313D01*
Y23165D01*
X19550D01*
Y23550D01*
D02*
G37*
G36*
X19450Y22845D02*
Y22650D01*
X19645D01*
X19635Y22698D01*
X19580Y22780D01*
X19498Y22836D01*
X19450Y22845D01*
D02*
G37*
G36*
X19350D02*
X19302Y22836D01*
X19220Y22780D01*
X19165Y22698D01*
X19155Y22650D01*
X19350D01*
Y22845D01*
D02*
G37*
G36*
X18700Y22743D02*
X18581D01*
Y22644D01*
X18700D01*
Y22743D01*
D02*
G37*
G36*
X18765Y24015D02*
X18231D01*
Y23373D01*
X18152Y23294D01*
X18123Y23251D01*
X18113Y23200D01*
Y22851D01*
X18099D01*
Y22682D01*
Y22513D01*
X18198D01*
Y22533D01*
X18362D01*
Y22447D01*
X18531D01*
X18700D01*
Y22544D01*
X18531D01*
Y22594D01*
X18481D01*
Y22743D01*
X18378D01*
Y23145D01*
X18418Y23185D01*
X18765D01*
Y24015D01*
D02*
G37*
G36*
X19645Y22550D02*
X19450D01*
Y22355D01*
X19498Y22364D01*
X19580Y22420D01*
X19635Y22502D01*
X19645Y22550D01*
D02*
G37*
G36*
X19350D02*
X19155D01*
X19165Y22502D01*
X19220Y22420D01*
X19302Y22364D01*
X19350Y22355D01*
Y22550D01*
D02*
G37*
G36*
X18700Y22347D02*
X18531D01*
X18362D01*
Y22250D01*
X18531D01*
X18700D01*
Y22347D01*
D02*
G37*
G36*
Y22150D02*
X18531D01*
X18362D01*
Y22053D01*
X18531D01*
X18700D01*
Y22150D01*
D02*
G37*
G36*
Y21756D02*
X18581D01*
Y21657D01*
X18700D01*
Y21756D01*
D02*
G37*
G36*
X17517D02*
X17398D01*
Y21657D01*
X17517D01*
Y21756D01*
D02*
G37*
G36*
X18700Y21953D02*
X18531D01*
X18362D01*
Y21887D01*
X18296D01*
Y21718D01*
Y21549D01*
X18395D01*
Y21657D01*
X18481D01*
Y21806D01*
X18531D01*
Y21856D01*
X18700D01*
Y21953D01*
D02*
G37*
G36*
X17258Y29956D02*
X17050D01*
Y29847D01*
X17258D01*
Y29956D01*
D02*
G37*
G36*
X16750Y28645D02*
Y28450D01*
X16945D01*
X16935Y28498D01*
X16880Y28580D01*
X16798Y28635D01*
X16750Y28645D01*
D02*
G37*
G36*
X16650D02*
X16602Y28635D01*
X16520Y28580D01*
X16465Y28498D01*
X16455Y28450D01*
X16650D01*
Y28645D01*
D02*
G37*
G36*
X16945Y28350D02*
X16750D01*
Y28155D01*
X16798Y28165D01*
X16880Y28220D01*
X16935Y28302D01*
X16945Y28350D01*
D02*
G37*
G36*
X16650D02*
X16455D01*
X16465Y28302D01*
X16520Y28220D01*
X16602Y28165D01*
X16650Y28155D01*
Y28350D01*
D02*
G37*
%LPD*%
G36*
X7834Y19630D02*
X7892Y19619D01*
X7950Y19630D01*
X7991Y19657D01*
X8031Y19630D01*
X8089Y19619D01*
X8147Y19630D01*
X8187Y19657D01*
X8228Y19630D01*
X8286Y19619D01*
X8300Y19621D01*
X8350Y19580D01*
Y19522D01*
X8298Y19501D01*
X8229Y19448D01*
X8176Y19379D01*
X8143Y19299D01*
X8132Y19213D01*
X8143Y19126D01*
X8176Y19046D01*
X8229Y18977D01*
X8298Y18924D01*
X8378Y18891D01*
X8465Y18880D01*
X8525Y18888D01*
X8573Y18840D01*
X8545Y18797D01*
X8486Y18822D01*
X8400Y18833D01*
X8314Y18822D01*
X8280Y18807D01*
X7794Y19294D01*
X7751Y19322D01*
X7700Y19333D01*
X7633D01*
Y19580D01*
X7683Y19621D01*
X7695Y19619D01*
X7753Y19630D01*
X7794Y19657D01*
X7834Y19630D01*
D02*
G37*
G36*
X7243D02*
X7302Y19619D01*
X7317Y19622D01*
X7367Y19581D01*
Y19200D01*
X7378Y19149D01*
X7406Y19106D01*
X7449Y19078D01*
X7500Y19067D01*
X7645D01*
X8093Y18620D01*
X8078Y18586D01*
X8067Y18500D01*
X8078Y18414D01*
X8112Y18334D01*
X8165Y18265D01*
X8234Y18212D01*
X8314Y18178D01*
X8400Y18167D01*
X8486Y18178D01*
X8566Y18212D01*
X8635Y18265D01*
X8688Y18334D01*
X8717Y18404D01*
X8767Y18394D01*
Y17754D01*
X8778Y17703D01*
X8806Y17660D01*
X9316Y17150D01*
X9359Y17122D01*
X9409Y17112D01*
X10221D01*
X10615Y16717D01*
Y14740D01*
X10418Y14542D01*
X10180D01*
Y14780D01*
X10172D01*
X10148Y14830D01*
X10162Y14849D01*
X10192Y14922D01*
X10196Y14950D01*
X9900D01*
Y15050D01*
X10196D01*
X10192Y15078D01*
X10162Y15151D01*
X10114Y15214D01*
X10100Y15225D01*
Y15275D01*
X10114Y15286D01*
X10162Y15349D01*
X10192Y15422D01*
X10196Y15450D01*
X9900D01*
Y15550D01*
X10196D01*
X10192Y15578D01*
X10162Y15651D01*
X10114Y15714D01*
X10092Y15731D01*
Y15794D01*
X10100Y15800D01*
X10145Y15859D01*
X10173Y15927D01*
X10182Y16000D01*
X10173Y16073D01*
X10145Y16141D01*
X10100Y16200D01*
X10092Y16206D01*
Y16269D01*
X10114Y16286D01*
X10162Y16349D01*
X10192Y16422D01*
X10196Y16450D01*
X9900D01*
Y16500D01*
X9850D01*
Y16796D01*
X9822Y16792D01*
X9749Y16762D01*
X9686Y16714D01*
X9669Y16692D01*
X9606D01*
X9600Y16700D01*
X9541Y16745D01*
X9473Y16773D01*
X9400Y16782D01*
X9327Y16773D01*
X9259Y16745D01*
X9200Y16700D01*
X9155Y16641D01*
X9127Y16573D01*
X9118Y16500D01*
X9127Y16427D01*
X9155Y16359D01*
X9200Y16300D01*
X9225Y16282D01*
Y16218D01*
X9200Y16200D01*
X9155Y16141D01*
X9127Y16073D01*
X9118Y16000D01*
X9127Y15927D01*
X9155Y15859D01*
X9200Y15800D01*
X9225Y15782D01*
Y15718D01*
X9200Y15700D01*
X9155Y15641D01*
X9127Y15573D01*
X9122Y15536D01*
X9070Y15518D01*
X8833Y15755D01*
Y17400D01*
X8822Y17451D01*
X8794Y17494D01*
X7030Y19257D01*
Y19586D01*
X7080Y19624D01*
X7105Y19619D01*
X7163Y19630D01*
X7203Y19657D01*
X7243Y19630D01*
D02*
G37*
%LPC*%
G36*
X9950Y16796D02*
Y16550D01*
X10196D01*
X10192Y16578D01*
X10162Y16651D01*
X10114Y16714D01*
X10051Y16762D01*
X9978Y16792D01*
X9950Y16796D01*
D02*
G37*
%LPD*%
D14*
X7105Y24583D02*
Y25605D01*
X8700Y27200D01*
X9683Y20824D02*
X10201D01*
X9683Y21020D02*
X10219D01*
X10591Y23787D02*
X11778D01*
X9695D02*
X10591D01*
Y22559D02*
Y23787D01*
X11778D02*
X11782Y23782D01*
X9683Y23776D02*
X9695Y23787D01*
X17750Y32950D02*
X17800Y33000D01*
X16800Y32950D02*
X17750D01*
X16700Y30947D02*
Y32850D01*
X16800Y32950D01*
X17852Y22682D02*
Y24448D01*
X17800Y24500D02*
X17852Y24448D01*
X17800Y31600D02*
Y33000D01*
X16853Y30794D02*
X17308D01*
X16700Y30947D02*
X16853Y30794D01*
X17997Y30892D02*
X18000Y30895D01*
Y31400D01*
X17800Y31600D02*
X18000Y31400D01*
X17000Y21147D02*
Y21956D01*
X17047Y22003D02*
X17567D01*
X17000Y21956D02*
X17047Y22003D01*
Y21100D02*
X18900D01*
X17000Y21147D02*
X17047Y21100D01*
X20300Y22047D02*
Y24100D01*
X20253Y22000D02*
X20300Y22047D01*
X19800Y22000D02*
X20253D01*
X18900Y21100D02*
X19800Y22000D01*
X17800Y24500D02*
X19900D01*
X20300Y24100D01*
X16900Y23900D02*
X16970Y23970D01*
X17270D01*
X17800Y24500D01*
X16900Y22800D02*
Y23900D01*
X17106Y22594D02*
X17567D01*
X16900Y22800D02*
X17106Y22594D01*
X18292Y30203D02*
X20304D01*
X20400Y30299D01*
X19094Y30006D02*
X20000Y29100D01*
X18292Y30006D02*
X19094D01*
X17997Y29415D02*
Y29908D01*
Y29415D02*
X18811Y28600D01*
X18900D01*
X7302Y24583D02*
Y25302D01*
X8100Y26100D01*
X15400Y25900D02*
X15500Y25800D01*
X16053D02*
X16100Y25753D01*
X19053Y30400D02*
X19100Y30447D01*
Y31799D01*
X15500Y25800D02*
X16053D01*
X20000Y29100D02*
X20600D01*
X18292Y30400D02*
X19053D01*
X14700Y25900D02*
X15400D01*
X14000Y25200D02*
X14700Y25900D01*
X12900Y22000D02*
X14000Y23100D01*
Y25200D01*
X11211Y21611D02*
X11600Y22000D01*
X12900D01*
X10708Y21808D02*
X11600Y22700D01*
X9683Y21808D02*
X10708D01*
X9683Y21611D02*
X11211D01*
X16100Y22800D02*
Y25753D01*
Y22800D02*
X16503Y22397D01*
X17567D01*
X16559Y22200D02*
X17567D01*
X2417Y23383D02*
X5117D01*
X6711Y19411D02*
Y20017D01*
X5900Y26100D02*
Y26200D01*
X6400Y25600D02*
X6700D01*
X5900Y26100D02*
X6400Y25600D01*
X6700Y25500D02*
Y25600D01*
X6711Y24583D02*
Y25489D01*
X6700Y25500D02*
X6711Y25489D01*
X6908Y19192D02*
Y19742D01*
D15*
Y24583D02*
Y27392D01*
X6900Y27400D02*
X6908Y27392D01*
X10201Y20824D02*
X10334Y20691D01*
X9900Y14500D02*
X9991Y14409D01*
X10472D01*
X10748Y14685D01*
X10276Y17244D02*
X10748Y16772D01*
Y14685D02*
Y16772D01*
X9409Y17244D02*
X10276D01*
X8900Y17754D02*
X9409Y17244D01*
X8900Y17754D02*
Y18700D01*
X8483Y19117D02*
X8900Y18700D01*
X8483Y19213D02*
Y19742D01*
X7700Y19200D02*
X8400Y18500D01*
X7500Y19200D02*
X7700D01*
X7500D02*
Y19733D01*
X15800Y29300D02*
X16403Y29903D01*
X15800Y26300D02*
Y29300D01*
X16403Y29903D02*
Y30203D01*
X17603Y26797D02*
Y29908D01*
X20100Y25100D02*
X20900Y24300D01*
Y21391D02*
Y24300D01*
X19300Y25100D02*
X20100D01*
X20809Y21300D02*
X20900Y21391D01*
X20000Y21300D02*
X20809D01*
X19400Y20700D02*
X20000Y21300D01*
X16559Y20700D02*
X19400D01*
X15694Y26194D02*
X15800Y26300D01*
X15694Y26126D02*
Y26194D01*
X15469Y25900D02*
X15694Y26126D01*
X15400Y25900D02*
X15469D01*
X15652Y30597D02*
X17308D01*
X16403Y30203D02*
X17308D01*
X15500Y30749D02*
X15652Y30597D01*
X17603Y26797D02*
X19300Y25100D01*
X16500Y21450D02*
Y22141D01*
Y20759D02*
Y21450D01*
X15500Y21200D02*
X15566D01*
X15816Y21450D01*
X16500D01*
X11800Y22900D02*
X11841D01*
X11900Y22959D01*
Y23000D01*
X11600Y22700D02*
X11800Y22900D01*
X20400Y21300D02*
X20500D01*
X16500Y20759D02*
X16559Y20700D01*
X16500Y22141D02*
X16559Y22200D01*
X9700Y12100D02*
Y13500D01*
X11813Y16587D02*
Y17628D01*
Y16587D02*
X12572Y15828D01*
X15100D01*
X13328Y19372D02*
X15100D01*
X13083Y19617D02*
X13328Y19372D01*
X10900Y20691D02*
X11076Y20514D01*
X12186D01*
X13269Y18572D02*
X13387D01*
X13083Y18759D02*
X13269Y18572D01*
X13083Y18759D02*
Y19617D01*
X12186Y20514D02*
X13083Y19617D01*
X9419Y17836D02*
Y18400D01*
Y17836D02*
X9628Y17628D01*
X11813D01*
X9419Y18400D02*
Y18528D01*
X8876Y19070D02*
X9419Y18528D01*
X8876Y19070D02*
Y19742D01*
X9683Y20824D02*
X9686Y20822D01*
X10334Y20691D02*
X10900D01*
X4200Y16900D02*
X6711Y19411D01*
X2400Y23400D02*
Y23900D01*
Y21241D02*
Y23400D01*
X2417Y23383D01*
X2449Y16900D02*
X4200D01*
X2400D02*
X2449D01*
X18498Y23452D02*
Y23600D01*
X18246Y22682D02*
Y23200D01*
X18498Y23452D01*
X1100Y14500D02*
Y16733D01*
X1600Y27300D02*
X3100D01*
X1300Y27000D02*
X1600Y27300D01*
X1300Y25000D02*
Y27000D01*
Y25000D02*
X2400Y23900D01*
X4250Y21250D02*
X4300Y21200D01*
X4200Y21300D02*
X4250Y21250D01*
X4414Y21414D02*
X4842D01*
X4250Y21250D02*
X4414Y21414D01*
X4300Y21200D02*
X4785D01*
X2400Y16900D02*
Y21241D01*
X2459Y21300D01*
X4200D01*
X2449Y16900D02*
X2616Y16733D01*
Y16684D02*
Y16733D01*
Y16684D02*
X2900Y16400D01*
Y15500D02*
Y16400D01*
X9900Y13700D02*
Y14500D01*
X9700Y13500D02*
X9900Y13700D01*
X2051Y10300D02*
X2100Y10251D01*
X2051Y10309D02*
X2267Y10525D01*
X2051Y10300D02*
Y10309D01*
X6800Y10625D02*
X6900Y10525D01*
X6800Y10625D02*
Y11525D01*
X1100Y16733D02*
X1267Y16900D01*
X1278D01*
X8500Y12100D02*
X9700D01*
X7925Y11525D02*
X8500Y12100D01*
X6800Y11525D02*
X7925D01*
X10400Y21200D02*
X10500Y21300D01*
X11800D01*
X10398Y21200D02*
X10400D01*
X10219Y21020D02*
X10398Y21200D01*
X6908Y19192D02*
X8700Y17400D01*
Y15700D02*
X9400Y15000D01*
X8700Y15700D02*
Y17400D01*
X17802Y12150D02*
X17950Y12002D01*
X10700Y12104D02*
X11800D01*
X10554Y12200D02*
X10700Y12054D01*
X14901Y12052D02*
X15000Y12151D01*
D17*
X1400Y7550D02*
D03*
Y6428D02*
D03*
D18*
X20200Y27900D02*
D03*
Y29100D02*
D03*
X20400Y30299D02*
D03*
Y31500D02*
D03*
X19100Y33000D02*
D03*
Y31799D02*
D03*
D19*
X15400Y24719D02*
D03*
Y25900D02*
D03*
X20200Y21191D02*
D03*
Y20009D02*
D03*
D20*
X15500Y30749D02*
D03*
Y31851D02*
D03*
X18900Y28600D02*
D03*
Y27498D02*
D03*
X17950Y12002D02*
D03*
Y10900D02*
D03*
X11800Y12052D02*
D03*
Y10950D02*
D03*
X12900Y10951D02*
D03*
Y12054D02*
D03*
X10700D02*
D03*
Y10951D02*
D03*
D21*
X17308Y30794D02*
D03*
Y30597D02*
D03*
Y30400D02*
D03*
Y30203D02*
D03*
Y30006D02*
D03*
X18292D02*
D03*
Y30203D02*
D03*
Y30400D02*
D03*
Y30597D02*
D03*
Y30794D02*
D03*
D22*
X17603Y29908D02*
D03*
X17800D02*
D03*
X17997D02*
D03*
Y30892D02*
D03*
X17800D02*
D03*
X17603D02*
D03*
D23*
X4900Y10525D02*
D03*
X6900D02*
D03*
D24*
X5900Y14600D02*
D03*
D25*
X13387Y18572D02*
D03*
X11813D02*
D03*
Y17628D02*
D03*
X13387D02*
D03*
D26*
X5924Y24583D02*
D03*
X6120D02*
D03*
X6317D02*
D03*
X6514D02*
D03*
X6711D02*
D03*
X6908D02*
D03*
X7105D02*
D03*
X7302D02*
D03*
X7498D02*
D03*
X7695D02*
D03*
X7892D02*
D03*
X8089D02*
D03*
X8286D02*
D03*
X8483D02*
D03*
X8680D02*
D03*
X8876D02*
D03*
Y20017D02*
D03*
X8680D02*
D03*
X8483D02*
D03*
X8286D02*
D03*
X8089D02*
D03*
X7892D02*
D03*
X7695D02*
D03*
X7498D02*
D03*
X7302D02*
D03*
X7105D02*
D03*
X6908D02*
D03*
X6711D02*
D03*
X6514D02*
D03*
X6317D02*
D03*
X6120D02*
D03*
X5924D02*
D03*
D27*
X9683Y23776D02*
D03*
Y23580D02*
D03*
Y23383D02*
D03*
Y23186D02*
D03*
Y22989D02*
D03*
Y22792D02*
D03*
Y22595D02*
D03*
Y22398D02*
D03*
Y22202D02*
D03*
Y22005D02*
D03*
Y21808D02*
D03*
Y21611D02*
D03*
Y21414D02*
D03*
Y21217D02*
D03*
Y21020D02*
D03*
Y20824D02*
D03*
X5117D02*
D03*
Y21020D02*
D03*
Y21217D02*
D03*
Y21414D02*
D03*
Y21611D02*
D03*
Y21808D02*
D03*
Y22005D02*
D03*
Y22202D02*
D03*
Y22398D02*
D03*
Y22595D02*
D03*
Y22792D02*
D03*
Y22989D02*
D03*
Y23186D02*
D03*
Y23383D02*
D03*
Y23580D02*
D03*
Y23776D02*
D03*
D28*
X9419Y18400D02*
D03*
X10600D02*
D03*
D29*
X10900Y20691D02*
D03*
Y19509D02*
D03*
D30*
X17852Y22682D02*
D03*
X18049D02*
D03*
X18246D02*
D03*
Y21718D02*
D03*
X18049D02*
D03*
X17852D02*
D03*
D31*
X18531Y22594D02*
D03*
Y22397D02*
D03*
Y22200D02*
D03*
Y22003D02*
D03*
Y21806D02*
D03*
X17567D02*
D03*
Y22003D02*
D03*
Y22200D02*
D03*
Y22397D02*
D03*
Y22594D02*
D03*
D32*
X19600Y23600D02*
D03*
X18498D02*
D03*
D33*
X9550Y12200D02*
D03*
Y10802D02*
D03*
X15400Y12100D02*
D03*
Y10702D02*
D03*
X16800Y12150D02*
D03*
Y10752D02*
D03*
X14050Y12099D02*
D03*
Y10701D02*
D03*
D34*
X3340Y5150D02*
D03*
X15560D02*
D03*
D35*
X949Y10300D02*
D03*
X2051D02*
D03*
D36*
X1278Y16900D02*
D03*
X2400D02*
D03*
D65*
X21900Y25100D02*
Y31100D01*
X21300Y25700D02*
X21900Y25100D01*
Y20600D02*
Y25100D01*
X20400Y31500D02*
X21500D01*
X21900Y31100D01*
X20200Y20009D02*
X21309D01*
X21900Y20600D01*
X15331Y24719D02*
X15500Y24550D01*
X15100Y23200D02*
X15500Y23600D01*
Y24550D01*
X15131Y24518D02*
X15331Y24719D01*
X11782Y23782D02*
X11800Y23800D01*
X20200Y17100D02*
Y20009D01*
X17950Y14850D02*
X20200Y17100D01*
X17950Y12002D02*
Y14850D01*
X20200Y26300D02*
Y27900D01*
X8100Y26100D02*
X10100D01*
X13300Y25388D02*
Y33800D01*
X13212Y25300D02*
X13300Y25388D01*
X10900Y25300D02*
X13212D01*
X10100Y26100D02*
X10900Y25300D01*
X13300Y33800D02*
X13700Y34200D01*
X17812D01*
X17900Y34102D02*
Y34112D01*
X17812Y34200D02*
X17900Y34112D01*
X19002Y33000D02*
X19100D01*
X17900Y34102D02*
X19002Y33000D01*
X9550Y12200D02*
X10554D01*
X11800Y12052D02*
X14901D01*
X15000Y12151D02*
X16600D01*
X10800Y31300D02*
X12100D01*
X6900Y27400D02*
X10800Y31300D01*
X16800Y12150D02*
X17802D01*
X10700Y12052D02*
X11800D01*
D66*
X1400Y5500D02*
Y6428D01*
X1750Y5150D02*
X3340D01*
X1400Y5500D02*
X1750Y5150D01*
X2100Y9100D02*
Y10251D01*
X1400Y7550D02*
Y8400D01*
X2100Y9100D01*
X2267Y10525D02*
X4900D01*
D67*
X9400Y16500D02*
D03*
X9900D02*
D03*
X9400Y16000D02*
D03*
X9900D02*
D03*
X9400Y15500D02*
D03*
X9900D02*
D03*
X9400Y15000D02*
D03*
X9900D02*
D03*
X9400Y14500D02*
D03*
D68*
X9900D02*
D03*
D69*
X15100Y15828D02*
D03*
D70*
Y19372D02*
D03*
D71*
X1100Y14500D02*
D03*
X12100Y33300D02*
D03*
X3100D02*
D03*
D72*
X1100Y13500D02*
D03*
X12100Y32300D02*
D03*
Y31300D02*
D03*
Y30300D02*
D03*
Y29300D02*
D03*
Y28300D02*
D03*
Y27300D02*
D03*
Y26300D02*
D03*
X3100Y32300D02*
D03*
Y31300D02*
D03*
Y30300D02*
D03*
Y29300D02*
D03*
Y28300D02*
D03*
Y27300D02*
D03*
Y26300D02*
D03*
D73*
X8465Y19213D02*
D03*
X10591Y22559D02*
D03*
X17800Y33000D02*
D03*
X21300Y25700D02*
D03*
X16900Y23900D02*
D03*
X15100Y23200D02*
D03*
X11800Y23800D02*
D03*
X20200Y26300D02*
D03*
X8700Y27200D02*
D03*
X15500Y21200D02*
D03*
X11900Y23000D02*
D03*
X8400Y18500D02*
D03*
X2900Y15500D02*
D03*
X5900Y26200D02*
D03*
X11800Y21300D02*
D03*
D74*
X1181Y1181D02*
D03*
X21260D02*
D03*
Y34252D02*
D03*
X1181D02*
D03*
D75*
X17250Y32050D02*
D03*
X16700Y28400D02*
D03*
X17400Y23350D02*
D03*
X19400Y22600D02*
D03*
M02*
