G04*
G04 #@! TF.GenerationSoftware,Altium Limited,Altium Designer,20.1.14 (287)*
G04*
G04 Layer_Color=16711935*
%FSLAX24Y24*%
%MOIN*%
G70*
G04*
G04 #@! TF.SameCoordinates,52465854-39A3-47B8-9217-5B2D91F539B0*
G04*
G04*
G04 #@! TF.FilePolarity,Negative*
G04*
G01*
G75*
%ADD56C,0.0480*%
%ADD57R,0.0480X0.0480*%
%ADD58C,0.0611*%
%ADD59R,0.0611X0.0611*%
%ADD60R,0.0671X0.0671*%
%ADD61C,0.0671*%
%ADD62C,0.0580*%
%ADD63C,0.1655*%
%ADD64C,0.0380*%
D56*
X9400Y16500D02*
D03*
X9900D02*
D03*
X9400Y16000D02*
D03*
X9900D02*
D03*
X9400Y15500D02*
D03*
X9900D02*
D03*
X9400Y15000D02*
D03*
X9900D02*
D03*
X9400Y14500D02*
D03*
D57*
X9900D02*
D03*
D58*
X15100Y15828D02*
D03*
D59*
Y19372D02*
D03*
D60*
X1100Y14500D02*
D03*
X12100Y33300D02*
D03*
X3100D02*
D03*
D61*
X1100Y13500D02*
D03*
X12100Y32300D02*
D03*
Y31300D02*
D03*
Y30300D02*
D03*
Y29300D02*
D03*
Y28300D02*
D03*
Y27300D02*
D03*
Y26300D02*
D03*
X3100Y32300D02*
D03*
Y31300D02*
D03*
Y30300D02*
D03*
Y29300D02*
D03*
Y28300D02*
D03*
Y27300D02*
D03*
Y26300D02*
D03*
D62*
X8465Y19213D02*
D03*
X10591Y22559D02*
D03*
X17800Y33000D02*
D03*
X21300Y25700D02*
D03*
X16900Y23900D02*
D03*
X15100Y23200D02*
D03*
X11800Y23800D02*
D03*
X20200Y26300D02*
D03*
X8700Y27200D02*
D03*
X15500Y21200D02*
D03*
X11900Y23000D02*
D03*
X8400Y18500D02*
D03*
X2900Y15500D02*
D03*
X5900Y26200D02*
D03*
X11800Y21300D02*
D03*
D63*
X1181Y1181D02*
D03*
X21260D02*
D03*
Y34252D02*
D03*
X1181D02*
D03*
D64*
X17250Y32050D02*
D03*
X16700Y28400D02*
D03*
X17400Y23350D02*
D03*
X19400Y22600D02*
D03*
M02*
